<?xml version="1.0" encoding="UTF-8"?>
<svg width="202px" height="189px" viewBox="0 0 202 189" version="1.1" xmlns="http://www.w3.org/2000/svg" xmlns:xlink="http://www.w3.org/1999/xlink">
    <title>Landing Page 3 &amp; Confirmed Illustration</title>
    <g id="Page-1" stroke="none" stroke-width="1" fill="none" fill-rule="evenodd">
        <g id="Landing-page-3" transform="translate(-87.000000, -343.000000)">
            <g id="Landing-Page-3-&amp;-Confirmed-Illustration" transform="translate(87.000000, 343.000000)">
                <g id="Brainstorming-rafiki">
                    <g id="Shadow--inject-150" transform="translate(0.000000, 177.000000)" fill="#F5F5F5" fill-rule="nonzero">
                        <ellipse id="path--inject-150" cx="101" cy="6.12" rx="100.942732" ry="5.66"></ellipse>
                    </g>
                    <g id="Table--inject-150" transform="translate(12.000000, 106.000000)" fill-rule="nonzero">
                        <rect id="Rectangle" fill="#407BFF" transform="translate(61.677056, 2.046875) rotate(180.000000) translate(-61.677056, -2.046875) " x="29.6361111" y="0.322916667" width="64.0818889" height="3.44791667"></rect>
                        <rect id="Rectangle" fill="#FFFFFF" opacity="0.5" transform="translate(61.677056, 2.046875) rotate(180.000000) translate(-61.677056, -2.046875) " x="29.6361111" y="0.322916667" width="64.0818889" height="3.44791667"></rect>
                        <rect id="Rectangle" fill="#407BFF" x="0.292444444" y="0.322916667" width="29.3436667" height="3.44791667"></rect>
                        <rect id="Rectangle" fill="#FFFFFF" opacity="0.5" x="0.292444444" y="0.322916667" width="29.3436667" height="3.44791667"></rect>
                        <rect id="Rectangle" fill="#000000" opacity="0.2" x="0.292444444" y="0.322916667" width="29.3436667" height="3.44791667"></rect>
                        <polygon id="Path" fill="#407BFF" points="2.27688889 7.44791667 91.744 7.44791667 92.5116667 3.77083333 1.504 3.77083333"></polygon>
                        <polygon id="Path" fill="#000000" opacity="0.6" points="2.27688889 7.44791667 91.744 7.44791667 92.5116667 3.77083333 1.504 3.77083333"></polygon>
                        <polygon id="Path" fill="#407BFF" points="82.4536667 7.44791667 82.4536667 74.7552083 80.4326667 74.7552083 77.8842222 7.44791667"></polygon>
                        <polygon id="Path" fill="#FFFFFF" opacity="0.5" points="82.4536667 7.44791667 82.4536667 74.7552083 80.4326667 74.7552083 77.8842222 7.44791667"></polygon>
                        <polygon id="Path" fill="#407BFF" points="58.5672222 7.44791667 58.5672222 74.7552083 56.5462222 74.7552083 53.9977778 7.44791667"></polygon>
                        <polygon id="Path" fill="#FFFFFF" opacity="0.5" points="58.5672222 7.44791667 58.5672222 74.7552083 56.5462222 74.7552083 53.9977778 7.44791667"></polygon>
                        <polygon id="Path" fill="#407BFF" points="6.78366667 7.44791667 6.78366667 74.7552083 8.80466667 74.7552083 11.3531111 7.44791667"></polygon>
                        <polygon id="Path" fill="#FFFFFF" opacity="0.5" points="6.78366667 7.44791667 6.78366667 74.7552083 8.80466667 74.7552083 11.3531111 7.44791667"></polygon>
                        <polygon id="Path" fill="#407BFF" points="30.6701111 7.44791667 30.6701111 74.7552083 32.6911111 74.7552083 35.2395556 7.44791667"></polygon>
                        <polygon id="Path" fill="#FFFFFF" opacity="0.5" points="30.6701111 7.44791667 30.6701111 74.7552083 32.6911111 74.7552083 35.2395556 7.44791667"></polygon>
                    </g>
                    <g id="character-3--inject-150" transform="translate(140.000000, 37.000000)" fill-rule="nonzero">
                        <path d="M38.5840385,26.353 C39.7211538,28.5795 40.7648077,30.8007857 41.7669231,33.0742143 C42.7690385,35.3476429 43.6984615,37.6471429 44.5551923,40.0144286 C44.7576923,40.6192857 44.9757692,41.2032857 45.1626923,41.8237857 L45.3080769,42.2826429 L45.3859615,42.5120714 C45.3859615,42.5902857 45.4638462,42.7832143 45.495,42.9135714 C45.6079274,43.4267497 45.6464021,43.953625 45.6092308,44.4778571 C45.5335464,45.319063 45.3249741,46.1428028 44.9913462,46.9181429 C44.7178023,47.5806567 44.389542,48.219026 44.01,48.8265714 C42.6018664,51.0302159 40.8706428,53.0078402 38.8748077,54.6926429 L36.9588462,52.9302143 C38.2454591,51.0248294 39.3759034,49.0176882 40.3390385,46.9285714 C40.5426625,46.4587523 40.7160948,45.9763113 40.8582692,45.4842143 C40.9685822,45.1159778 41.0159835,44.7316362 40.9984615,44.3475 C40.9992132,44.2657256 40.9795785,44.1850618 40.9413462,44.1128571 C40.9413462,44.1128571 40.9413462,44.1389286 40.9153846,44.0763571 L40.8375,43.873 L40.6765385,43.4662857 C40.4688462,42.9448571 40.2248077,42.3817143 39.9963462,41.8342143 C39.0617308,39.6494286 38.0492308,37.4646429 37.0159615,35.2798571 L33.9005769,28.7359286 L38.5840385,26.353 Z" id="Path" fill="#FF8B7B"></path>
                        <path d="M37.53,52.2992857 L35.1778846,53.3108571 L37.5196154,56.5697857 C37.5196154,56.5697857 39.2226923,55.6103571 39.4355769,53.9365714 L37.53,52.2992857 Z" id="Path" fill="#FF8B7B"></path>
                        <polygon id="Path" fill="#FF8B7B" points="31.995 54.9377143 34.5859615 57.378 37.5196154 56.5697857 35.1778846 53.3108571"></polygon>
                        <path d="M22.3632692,10.0062143 C22.3061538,10.2825714 22.1192308,10.4755 21.9375,10.439 C21.7557692,10.4025 21.6623077,10.147 21.7142308,9.87585714 C21.7661538,9.60471429 21.9634615,9.40657143 22.14,9.44307143 C22.3165385,9.47957143 22.4203846,9.72985714 22.3632692,10.0062143 Z" id="Path" fill="#263238"></path>
                        <path d="M22.1451923,10.4807143 C21.6475259,11.2546619 21.0465451,11.9564346 20.3590385,12.5664286 C20.6802248,12.9186727 21.1404755,13.109664 21.6155769,13.0878571 L22.1451923,10.4807143 Z" id="Path" fill="#ED847E"></path>
                        <path d="M23.6769231,8.687 C23.629387,8.68551803 23.584457,8.66483798 23.5523077,8.62964286 C23.2775729,8.31606788 22.8711982,8.15166951 22.4567308,8.18642857 C22.3992247,8.19667445 22.3406439,8.17533307 22.3030551,8.13044352 C22.2654663,8.08555398 22.2545802,8.02393607 22.2744974,7.96880065 C22.2944147,7.91366524 22.3421094,7.87338872 22.3996154,7.86314286 C22.9217831,7.79973925 23.4422203,7.99402924 23.7963462,8.38457143 C23.8384321,8.43308504 23.8489921,8.50157652 23.8234861,8.56059982 C23.7979802,8.61962312 23.7409535,8.65866038 23.6769231,8.66092857 L23.6769231,8.687 Z" id="Path" fill="#263238"></path>
                        <path d="M30.1569231,13.87 C29.6376923,16.4145714 29.1651923,21.0709286 30.9357692,22.7707857 C30.9357692,22.7707857 30.2451923,25.3466429 25.5409615,25.3466429 C20.3486538,25.3466429 23.0694231,22.7707857 23.0694231,22.7707857 C25.8888462,22.0929286 25.8161538,19.9863571 25.3280769,18.0101429 L30.1569231,13.87 Z" id="Path" fill="#FF8B7B"></path>
                        <path d="M32.1507692,23.579 C32.5298077,22.7655714 32.9555769,21.8322143 32.0053846,21.5819286 C30.9669231,21.3055714 25.2813462,21.1856429 23.3498077,21.8530714 C21.4182692,22.5205 22.0361538,24.1160714 22.0361538,24.1160714 L32.1507692,23.579 Z" id="Path" fill="#0B7785"></path>
                        <path d="M21.7298077,142.694964 C21.2884615,142.694964 20.8575,142.606758 20.6913462,142.320089 C20.6173146,142.16727 20.6173146,141.965725 20.6913462,141.812906 C20.7488679,141.67695 20.8423038,141.579068 20.9509615,141.540937 C21.5273077,141.320423 22.7371154,142.275986 22.7838462,142.342141 C22.8144965,142.364088 22.8313723,142.411868 22.8253846,142.459749 C22.8200752,142.506438 22.7955281,142.544084 22.7630769,142.555305 C22.4219261,142.641728 22.076347,142.688438 21.7298077,142.694964 L21.7298077,142.694964 Z M21.1846154,141.739401 C21.1312877,141.727556 21.0769815,141.727556 21.0236538,141.739401 C20.9560405,141.757932 20.8973683,141.816877 20.8626923,141.901111 C20.8055769,142.048121 20.8263462,142.114276 20.8626923,142.158379 C21.0236538,142.47445 21.9011538,142.4818 22.5398077,142.349491 C22.1181852,142.03599 21.6582755,141.838923 21.1846154,141.768803 L21.1846154,141.739401 Z" id="Shape" fill="#407BFF"></path>
                        <path d="M22.7786538,142.271786 L22.7423077,142.271786 C22.3269231,142.084071 21.4961538,141.328 21.5584615,140.936929 C21.5584615,140.843071 21.6415385,140.728357 21.8648077,140.7075 C22.0298135,140.690376 22.1946816,140.741175 22.3217308,140.848286 C22.6323733,141.228123 22.8142664,141.697567 22.8409615,142.188357 C22.844567,142.216569 22.8326374,142.244523 22.8098077,142.261357 L22.7786538,142.271786 Z M21.9323077,140.863929 L21.8803846,140.863929 C21.735,140.863929 21.7246154,140.936929 21.7246154,140.957786 C21.6830769,141.192429 22.2438462,141.786857 22.6748077,142.042357 C22.6328101,141.6465 22.473658,141.272363 22.2178846,140.968214 C22.1371204,140.902117 22.0364846,140.865368 21.9323077,140.863929 L21.9323077,140.863929 Z" id="Shape" fill="#407BFF"></path>
                        <polygon id="Path" fill="#FF8B7B" points="26.5846154 142.188357 23.1213462 142.188357 22.7786538 134.142714 26.2367308 134.142714"></polygon>
                        <polygon id="Path" fill="#FF8B7B" points="51.5284615 138.355857 48.0859615 138.731286 45.4898077 130.915071 48.9323077 130.539643"></polygon>
                        <path d="M46.5126923,139.839613 C46.0817308,140.005839 45.6507692,140.073841 45.4742308,139.839613 C45.3746924,139.71435 45.3412512,139.510574 45.3911538,139.333379 C45.4226322,139.175655 45.4979117,139.044201 45.5988462,138.970704 C46.1180769,138.540027 47.4576923,139.076484 47.5148077,139.099151 C47.5480553,139.113534 47.5724325,139.154919 47.5771154,139.204931 C47.5791142,139.255056 47.5608597,139.30228 47.5303846,139.325823 C47.2030346,139.543359 46.8622888,139.715387 46.5126923,139.839613 L46.5126923,139.839613 Z M45.8169231,139.08404 C45.7649995,139.104583 45.7145704,139.132418 45.6663462,139.167153 C45.6060382,139.212454 45.5610345,139.291586 45.5417308,139.386269 C45.5105769,139.552495 45.5417308,139.612941 45.5676923,139.65072 C45.7805769,139.907615 46.6321154,139.59783 47.2292308,139.24271 C46.7697087,139.059047 46.289964,139.007715 45.8169231,139.091595 L45.8169231,139.08404 Z" id="Shape" fill="#407BFF"></path>
                        <path d="M47.5044231,139.169286 C47.5044231,139.169286 47.4784615,139.169286 47.4680769,139.169286 C47.0163462,139.091071 46.0298077,138.569643 45.9986538,138.173357 C45.9986538,138.0795 46.0246154,137.949143 46.2375,137.870929 C46.3884257,137.806299 46.5590743,137.806299 46.71,137.870929 C47.2292308,138.116 47.5459615,138.997214 47.5615385,139.033714 C47.5775406,139.059202 47.5775406,139.091655 47.5615385,139.117143 L47.5044231,139.169286 Z M46.3413462,138.011714 L46.2894231,138.011714 C46.1544231,138.063857 46.1596154,138.121214 46.1596154,138.142071 C46.1596154,138.376714 46.8709615,138.8095 47.3486538,138.9555 C47.2147071,138.581522 46.9678381,138.258869 46.6425,138.032571 C46.5482721,137.987939 46.4407832,137.980494 46.3413462,138.011714 L46.3413462,138.011714 Z" id="Shape" fill="#407BFF"></path>
                        <path d="M47.8886538,138.408 L51.6219231,137.318214 C51.7577442,137.27681 51.903712,137.338069 51.9698077,137.464214 L53.4807692,140.264286 C53.5502227,140.402402 53.5550076,140.564361 53.4938302,140.70637 C53.4326529,140.848379 53.3118324,140.955768 53.1640385,140.9995 C51.8555769,141.359286 51.2013462,141.468786 49.5605769,141.943286 C48.5480769,142.2405 46.4971154,142.954857 45.1003846,143.361571 C43.7036538,143.768286 43.1221154,142.433429 43.6569231,142.141429 C46.0557692,140.832643 46.7982692,139.774143 47.4005769,138.799071 C47.5076897,138.611009 47.6822747,138.471122 47.8886538,138.408 L47.8886538,138.408 Z" id="Path" fill="#263238"></path>
                        <path d="M23.1421154,141.786854 L26.9221154,141.786854 C27.0649213,141.786227 27.188532,141.886405 27.2180769,142.026714 L27.9034615,145.113571 C27.9332542,145.26803 27.8920075,145.427739 27.7912175,145.548187 C27.6904275,145.668635 27.5408708,145.736942 27.3842308,145.734071 C26.0186538,145.708 24.0507692,145.629786 22.3373077,145.629786 C20.3330769,145.629786 19.2219231,145.739286 16.8905769,145.739286 C15.4678846,145.739286 15.0784615,144.294929 15.6703846,144.175 C18.3807692,143.580571 19.9488462,143.518 22.2905769,142.089286 C22.5398634,141.908927 22.8353444,141.803985 23.1421154,141.786854 Z" id="Path" fill="#263238"></path>
                        <path d="M20.6498077,29.0696429 C20.1928846,30.2897857 19.6996154,31.3587143 19.17,32.4745714 C18.6403846,33.5904286 18.0744231,34.6593571 17.4669231,35.7335 C16.2361606,37.93634 14.7720947,39.9992536 13.1001923,41.8863571 C12.8769231,42.1262143 12.6484615,42.3660714 12.4096154,42.6007143 C12.2953846,42.7154286 12.1759615,42.8353571 12.0513462,42.9500714 L11.6463462,43.3202857 C11.2583739,43.6699612 10.7942527,43.9235404 10.2911538,44.0607143 C9.92369868,44.1576774 9.54077748,44.1807145 9.16442308,44.1285 C8.97697759,44.1042156 8.79253514,44.0605309 8.61403846,43.9981429 C8.45682685,43.9420639 8.30408044,43.8740829 8.15711538,43.7947857 C7.76048108,43.5752705 7.41524378,43.2730204 7.14461538,42.9083571 C6.97226346,42.6858979 6.82266225,42.446571 6.69807692,42.194 C6.37177857,41.5057618 6.12777241,40.7811465 5.97115385,40.0352857 C5.83096154,39.3782857 5.7375,38.7525714 5.65442308,38.1320714 C5.37038741,35.7096921 5.30088426,33.2667851 5.44673077,30.8320714 L8.04288462,30.6443571 C8.56211538,32.8917143 9.08134615,35.186 9.66288462,37.3134286 C9.80826923,37.8348571 9.97961538,38.3562857 10.1509615,38.836 C10.2769929,39.231547 10.4514017,39.6098647 10.6701923,39.9622857 C10.7013462,40.004 10.7325,40.0248571 10.7117308,39.9622857 C10.6183208,39.8306252 10.4932973,39.7248023 10.3482692,39.6546429 C10.2668685,39.6092002 10.1817514,39.5708226 10.0938462,39.5399286 C9.98450553,39.5005273 9.87140577,39.4725695 9.75634615,39.4565 C9.5258968,39.4254279 9.29169742,39.4378063 9.06576923,39.493 C8.84288953,39.5473967 8.63405294,39.6487024 8.45307692,39.7902143 L8.67634615,39.5399286 C8.76461538,39.4512857 8.84769231,39.3574286 8.93076923,39.2583571 C9.09692308,39.0706429 9.25788462,38.8672857 9.41884615,38.6691429 C10.7355352,36.9397392 11.8979152,35.0971848 12.8925,33.1628571 C13.4117308,32.1825714 13.9309615,31.171 14.4034615,30.1594286 C14.8759615,29.1478571 15.3536538,28.0737143 15.7690385,27.1247143 L20.6498077,29.0696429 Z" id="Path" fill="#FF8B7B"></path>
                        <path d="M37.1353846,23.5529286 C40.3805769,24.3037857 43.6569231,33.8250714 43.6569231,33.8250714 L36.9796154,38.6378571 C36.9796154,38.6378571 35.1155769,34.2005 33.2775,30.3210714 C31.3563462,26.2539286 33.8175,22.7916429 37.1353846,23.5529286 Z" id="Path" fill="#263238"></path>
                        <path d="M17.7421154,23.7354286 C17.7421154,23.7354286 14.0607692,27.9068571 17.5396154,53.7749286 L36.0501923,53.7749286 C36.18,50.9227143 34.3938462,37.0005714 37.1353846,23.5320714 C35.0877142,23.13794 33.0168879,22.8766847 30.9357692,22.7499286 C28.315894,22.595995 25.6892983,22.595995 23.0694231,22.7499286 C21.2708013,22.9385646 19.4896095,23.2680677 17.7421154,23.7354286 L17.7421154,23.7354286 Z" id="Path" fill="#263238"></path>
                        <path d="M22.3269231,27.2550714 C23.49,30.3836429 18.1730769,38.6639286 18.1730769,38.6639286 L10.2703846,33.8928571 C12.2828011,31.5901348 14.0105355,29.0514677 15.4159615,26.3321429 C17.9757692,20.9822857 21.3923077,24.7365714 22.3269231,27.2550714 Z" id="Path" fill="#263238"></path>
                        <path d="M6.33461538,32.3755 L3.01673077,30.9728571 L4.74576923,28.2562143 C4.74576923,28.2562143 7.09788462,28.5065 7.965,30.0603571 C8.22147423,30.5297295 8.08234787,31.1178857 7.64307692,31.4212857 L6.33461538,32.3755 Z" id="Path" fill="#FF8B7B"></path>
                        <polygon id="Path" fill="#FF8B7B" points="0.321923077 28.9392857 3.21923077 27.0152143 4.74576923 28.2562143 3.01673077 30.9728571"></polygon>
                        <polygon id="Path" fill="#000000" opacity="0.2" points="22.7786538 134.142714 22.9551923 138.293286 26.4184615 138.293286 26.2419231 134.142714"></polygon>
                        <polygon id="Path" fill="#000000" opacity="0.2" points="48.9323077 130.544857 45.4898077 130.920286 46.9332692 135.253357 50.2719231 134.570286"></polygon>
                        <path d="M31.6055769,11.2837143 C30.7176923,14.6156429 30.3646154,16.6127143 28.3188462,17.9997143 C25.2398077,20.0854286 21.4026923,17.6920714 21.2832692,14.162 C21.1742308,10.9812857 22.6488462,6.06421429 26.2107692,5.39678571 C27.8055302,5.08266869 29.4482761,5.62315092 30.5487759,6.82403963 C31.6492757,8.02492834 32.0494723,9.71374831 31.6055769,11.2837143 Z" id="Path" fill="#FF8B7B"></path>
                        <path d="M33.7759615,9.32314286 C34.2328846,9.43264286 35.1623077,9.36485714 35.9982692,7.46685714 C37.1561538,4.85971429 32.0728846,5.58971429 32.0728846,5.58971429 C32.0728846,5.58971429 36.7459615,3.46228571 32.7582692,1.41828571 C30.1621154,0.0886428571 29.1859615,1.31921429 28.8328846,2.33078571 C28.9367308,1.28792857 28.6823077,-0.0990714286 26.2990385,0.636142857 C22.6644231,1.752 25.2865385,4.64071429 25.2865385,4.64071429 C24.4971862,4.07506783 23.4181793,4.15622622 22.7215385,4.83364286 C21.5584615,5.8765 22.4723077,7.35214286 23.5938462,8.66614286 C22.9240385,9.61514286 22.6332692,10.7518571 24.4298077,11.1742143 L24.4298077,11.1742143 C25.0918473,11.2958776 25.5764166,11.8697841 25.5876923,12.5455714 C25.5876923,14.3236429 25.6551923,15.7732143 26.8857692,16.9099286 C28.1163462,18.0466429 32.4051923,16.425 32.1871154,13.8856429 C33.231534,13.7739611 34.2250623,13.3752284 35.0584615,12.7332857 C37.2703846,10.9969286 34.6742308,9.69335714 33.7759615,9.32314286 Z" id="Path" fill="#263238"></path>
                        <path d="M26.8753846,11.3410714 C26.5209206,12.1212464 25.9206124,12.7625752 25.1671154,13.1660714 C24.1701923,13.6875 23.6094231,12.9262143 23.8378846,11.9250714 C24.0403846,11.023 24.8036538,9.66728571 25.8265385,9.55778571 C26.8494231,9.44828571 27.2855769,10.3972857 26.8753846,11.3410714 Z" id="Path" fill="#FF8B7B"></path>
                        <path d="M24.1078846,53.7749286 C24.1078846,53.7749286 28.0332692,80.3417143 30.1880769,90.2749286 C32.5505769,101.172786 44.9705769,134.539 44.9705769,134.539 L51.2013462,133.386643 C51.2013462,133.386643 41.9175,102.054 40.5675,91.2656429 C39.1084615,79.5543571 36.045,53.7592857 36.045,53.7592857 L24.1078846,53.7749286 Z" id="Path" fill="#0B7785"></path>
                        <path d="M26.5898077,63.2388571 C31.1538462,64.1357143 30.6346154,81.1447143 30.1153846,89.8942857 C28.8017308,83.7101429 26.8857692,71.8111429 25.5773077,63.364 C25.8912529,63.2093392 26.2478876,63.1652599 26.5898077,63.2388571 L26.5898077,63.2388571 Z" id="Path" fill="#000000" opacity="0.2"></path>
                        <path d="M17.5396154,53.7749286 C17.5396154,53.7749286 17.0619231,79.7629286 17.4409615,90.3635714 C17.8303846,101.386571 21.6623077,137.490286 21.6623077,137.490286 L27.5192308,137.490286 C27.5192308,137.490286 27.7321154,102.033143 27.9917308,91.2030714 C28.2773077,79.4031429 29.7,53.7749286 29.7,53.7749286 L17.5396154,53.7749286 Z" id="Path" fill="#0B7785"></path>
                        <path d="M43.5530769,132.442857 C43.5271154,132.442857 44.6382692,134.726714 44.6382692,134.726714 L51.6530769,133.433571 L51.1338462,131.311357 L43.5530769,132.442857 Z" id="Path" fill="#263238"></path>
                        <path d="M20.5355769,135.143857 C20.5096154,135.143857 20.8678846,137.589357 20.8678846,137.589357 L28.0021154,137.589357 L28.1942308,135.404571 L20.5355769,135.143857 Z" id="Path" fill="#263238"></path>
                    </g>
                    <g id="character-2--inject-150" transform="translate(77.000000, 37.000000)" fill-rule="nonzero">
                        <polygon id="Path" fill="#7F3E3B" points="23.1934783 142.037143 26.8513043 142.037143 26.8257609 133.402286 23.1730435 133.402286"></polygon>
                        <polygon id="Path" fill="#7F3E3B" points="3.78043478 142.037143 7.43315217 142.037143 8.64391304 133.402286 4.98608696 133.402286"></polygon>
                        <path d="M7.66304348,141.609571 L3.57608696,141.609571 C3.42912114,141.605721 3.30321968,141.716189 3.2848913,141.865071 L2.80467391,145.176143 C2.78577874,145.34565 2.83851673,145.515347 2.94968333,145.642745 C3.06084993,145.770144 3.21991989,145.843182 3.38706522,145.843571 C4.8226087,145.8175 5.51228261,145.728857 7.31565217,145.728857 C8.42934783,145.728857 10.7231522,145.848786 12.2557609,145.848786 C13.7883696,145.848786 13.8803261,144.2845 13.2417391,144.159357 C10.3808696,143.533643 9.25695652,142.662857 8.29141304,141.839 C8.11724078,141.685353 7.89317861,141.603544 7.66304348,141.609571 L7.66304348,141.609571 Z" id="Path" fill="#263238"></path>
                        <path d="M26.8053261,141.609539 L22.8154348,141.609539 C22.6670364,141.607382 22.5391611,141.715779 22.5140217,141.865071 L21.9673913,145.176143 C21.9410919,145.335013 21.9814736,145.497848 22.0786588,145.624816 C22.1758439,145.751784 22.3208694,145.831176 22.4782609,145.843571 C23.9138043,145.8175 25.9930435,145.728857 27.8015217,145.728857 C29.9165217,145.728857 31.7505435,145.848786 34.2282609,145.848786 C35.7302174,145.848786 36.0776087,144.2845 35.4441304,144.159357 C32.5577174,143.523214 30.2179348,143.455429 27.678913,141.896357 C27.4174269,141.724158 27.1161362,141.625248 26.8053261,141.609539 L26.8053261,141.609539 Z" id="Path" fill="#263238"></path>
                        <path d="M24.0108696,24.0587143 L29.0020652,22.4266429 C29.0020652,22.4266429 33.5998913,35.2955 34.9281522,36.6564286 C36.726413,38.5075 39.3011957,43.435 40.721413,46.1672857 C40.5579348,46.7773571 39.6996739,48.1956429 39.1888043,48.4615714 C35.668913,45.8857143 30.9893478,40.9738571 29.9931522,38.8099286 C27.7248913,33.8928571 24.0108696,24.0587143 24.0108696,24.0587143 Z" id="Path" fill="#7F3E3B"></path>
                        <path d="M22.8563043,21.2534286 C21.1806522,24.382 27.0863043,34.8835714 27.0863043,34.8835714 L34.5398913,31.3587143 C34.5398913,31.3587143 32.833587,26.4520714 30.8463043,22.2493571 C28.956087,18.25 24.7158696,17.7911429 22.8563043,21.2534286 Z" id="Path" fill="#0B7785"></path>
                        <path d="M40.4046739,45.6458571 L44.1646739,47.9766429 L41.3804348,51.8769286 C40.2190915,50.6756879 39.2440401,49.300688 38.488913,47.7993571 L40.4046739,45.6458571 Z" id="Path" fill="#7F3E3B"></path>
                        <polygon id="Path" fill="#7F3E3B" points="46.9182609 51.2616429 44.4916304 53.0449286 41.3855435 51.8769286 44.1646739 47.9766429"></polygon>
                        <polygon id="Path" fill="#000000" opacity="0.2" points="26.8257609 133.402286 26.8359783 137.855286 23.1832609 137.855286 23.1679348 133.402286"></polygon>
                        <polygon id="Path" fill="#000000" opacity="0.2" points="4.98608696 133.402286 8.64391304 133.402286 8.02065217 137.855286 4.36282609 137.855286"></polygon>
                        <path d="M27.6329348,19.1364286 C27.6329348,19.1364286 32.2307609,31.9583571 28.6240217,52.9354286 L9.07815217,52.9354286 C8.86869565,49.8694286 10.3961957,33.3766429 7.15217391,18.9487143 C9.30639489,18.5222007 11.4856524,18.2400264 13.6759783,18.104 C16.4442542,17.9396351 19.2195501,17.9396351 21.9878261,18.104 C23.8925642,18.3007545 25.7797701,18.6459038 27.6329348,19.1364286 Z" id="Path" fill="#0B7785"></path>
                        <path d="M17.3338043,19.2094286 C17.3338043,19.2094286 20.6340217,23.5998571 19.9392391,52.9354286 L23.566413,52.9354286 C23.566413,52.9354286 24.9406522,27.8234286 20.8894565,18.9539286 C19.6993129,18.9370471 18.5098909,19.0225159 17.3338043,19.2094286 L17.3338043,19.2094286 Z" id="Path" fill="#FFFFFF"></path>
                        <path d="M11.4843478,22.5100714 C11.8675,24.8825714 11.2697826,30.5661429 9.21097826,37.1100714 C9.11086668,31.4855584 8.52449665,25.8810442 7.45869565,20.3617857 L7.45869565,20.3357143 C8.74097826,20.221 11.1216304,20.2835714 11.4843478,22.5100714 Z" id="Path" fill="#000000" opacity="0.2"></path>
                        <path d="M14.57,10.1730714 C15.1626087,12.9001429 15.5048913,16.2842143 13.6759783,18.104 C13.6759783,18.104 14.8152174,20.8727857 19.806413,20.8727857 C24.3480435,20.8727857 22.0082609,18.104 22.0082609,18.104 C19.0094565,17.3792143 19.0707609,13.6145 19.5407609,11.4922857 L14.57,10.1730714 Z" id="Path" fill="#7F3E3B"></path>
                        <path d="M13.6759783,17.8693571 C15.3021205,19.3562356 17.2791929,20.3858681 19.4130435,20.8571429 C18.5394565,21.462 17.4155435,23.6311429 17.4155435,23.6311429 C17.4155435,23.6311429 13.1957609,21.9886429 12.3681522,18.0675 C12.7717391,17.9788571 13.6759783,17.8693571 13.6759783,17.8693571 Z" id="Path" fill="#407BFF"></path>
                        <path d="M13.6759783,17.8693571 C15.3021205,19.3562356 17.2791929,20.3858681 19.4130435,20.8571429 C18.5394565,21.462 17.4155435,23.6311429 17.4155435,23.6311429 C17.4155435,23.6311429 13.1957609,21.9886429 12.3681522,18.0675 C12.7717391,17.9788571 13.6759783,17.8693571 13.6759783,17.8693571 Z" id="Path" fill="#0B7785" opacity="0.3"></path>
                        <path d="M21.6046739,17.7650714 C21.6046739,17.7650714 22.7643478,20.2522857 20.6391304,20.8310714 C21.6950418,21.3737288 22.5801771,22.2084981 23.1934783,23.2400714 C23.1934783,23.2400714 24.6954348,20.1792857 22.8920652,17.9736429 C22.5038043,17.8745714 21.6046739,17.7650714 21.6046739,17.7650714 Z" id="Path" fill="#407BFF"></path>
                        <path d="M21.6046739,17.7650714 C21.6046739,17.7650714 22.7643478,20.2522857 20.6391304,20.8310714 C21.6950418,21.3737288 22.5801771,22.2084981 23.1934783,23.2400714 C23.1934783,23.2400714 24.6954348,20.1792857 22.8920652,17.9736429 C22.5038043,17.8745714 21.6046739,17.7650714 21.6046739,17.7650714 Z" id="Path" fill="#0B7785" opacity="0.3"></path>
                        <path d="M19.5254348,11.4975 C19.1560397,12.9732518 19.2002936,14.5252447 19.6531522,15.9765714 C19.2287838,16.1825534 18.7540084,16.2551509 18.2891304,16.1851429 C17.1958696,15.9609286 16.5368478,15.4499286 15.6275,13.578 C15.5508696,13.0982857 14.6721739,10.6527857 14.5751087,10.1939286 L19.5254348,11.4975 Z" id="Path" fill="#000000" opacity="0.2"></path>
                        <path d="M23.5255435,7.37821429 C23.621826,8.29594173 23.3489634,9.21424688 22.7694565,9.92278571 C21.9980435,10.8509286 20.915,10.3034286 20.5522826,9.19278571 C20.2202174,8.19685714 20.2253261,6.50742857 21.2828261,5.986 C21.7610138,5.76190876 22.3170216,5.7948612 22.766584,6.07393663 C23.2161465,6.35301206 23.500551,6.84176326 23.5255435,7.37821429 L23.5255435,7.37821429 Z" id="Path" fill="#7F3E3B"></path>
                        <path d="M23.5255435,7.37821429 C23.621826,8.29594173 23.3489634,9.21424688 22.7694565,9.92278571 C21.9980435,10.8509286 20.915,10.3034286 20.5522826,9.19278571 C20.2202174,8.19685714 20.2253261,6.50742857 21.2828261,5.986 C21.7610138,5.76190876 22.3170216,5.7948612 22.766584,6.07393663 C23.2161465,6.35301206 23.500551,6.84176326 23.5255435,7.37821429 L23.5255435,7.37821429 Z" id="Path" fill="#000000" opacity="0.2"></path>
                        <path d="M12.1127174,7.24264286 C13.6044565,10.6527857 13.8241304,12.5664286 16.0259783,14.0212143 C19.3415217,16.2268571 23.2905435,13.6040714 23.2854397,9.79764286 C23.2854397,6.37707143 21.5484783,1.16278571 17.7884783,0.411928571 C13.6759783,-0.375428571 10.2173913,2.88871429 12.1127174,7.24264286 Z" id="Path" fill="#7F3E3B"></path>
                        <path d="M11.5456522,10.4285714 C12.1005275,11.1135865 12.8592589,11.5950776 13.7066304,11.7999286 C14.7283696,12.0189286 14.9071739,11.0021429 14.3145652,10.001 C13.7781522,9.09892857 12.8330435,7.34692857 11.6938043,8.1395 C10.9377174,8.687 10.8151087,9.57342857 11.5456522,10.4285714 Z" id="Path" fill="#7F3E3B"></path>
                        <path d="M23.6123913,9.8185 C23.7247826,12.1232143 25.9828261,15.0327857 21.9316304,15.695 C19.8170441,16.0350659 17.6540853,15.5611986 15.8625,14.3653571 C14.0897826,13.2442857 13.563587,10.0844286 12.1893478,7.96742857 C12.1280435,7.88921429 12.1586957,7.79535714 12.2302174,7.7015 C12.3978703,7.50644131 12.6484528,7.40749699 12.9010722,7.43660804 C13.1536916,7.4657191 13.3763518,7.61919837 13.4971739,7.8475 C13.9569565,8.66614286 14.8152174,9.86021429 15.9697826,9.93321429 C17.7373913,10.074 23.5,7.46164286 23.6123913,9.8185 Z" id="Path" fill="#263238"></path>
                        <path d="M15.7756522,52.9354286 C15.7756522,52.9354286 16.2865217,57.6282857 16.8842391,63.9845 C17.5994565,71.1854286 18.4832609,80.5398571 19.0452174,87.6677857 C19.0424531,87.6990078 19.0424531,87.7304208 19.0452174,87.7616429 C19.1525,89.1173571 19.2444565,90.3687857 19.3261957,91.5472143 C20.1180435,103.169857 21.9622826,136.994929 21.9622826,136.994929 L28.1540217,136.994929 C28.1540217,136.994929 30.5551087,102.476357 30.4427174,90.6451429 C30.3405435,79.2571429 28.6086957,52.9354286 28.6086957,52.9354286 L15.7756522,52.9354286 Z" id="Path" fill="#263238"></path>
                        <path d="M21.4565217,134.773643 C21.4258696,134.773643 21.5484783,137.125286 21.5484783,137.125286 L28.7006522,137.125286 L28.8947826,134.481643 L21.4565217,134.773643 Z" id="Path" fill="#0B7785"></path>
                        <path d="M16.8842391,63.9845 C17.5994565,71.1854286 18.4832609,80.5398571 19.0452174,87.6677857 C19.0424531,87.6990078 19.0424531,87.7304208 19.0452174,87.7616429 C20.4194565,81.0091429 21.6761957,74.8562857 20.3275,64.8187857 L16.8842391,63.9845 Z" id="Path" fill="#000000" opacity="0.2"></path>
                        <path d="M21.686413,52.9354286 C21.686413,52.9354286 19.556087,79.8880714 18.0592391,90.5669286 C16.4193478,102.262571 9.66054348,136.974071 9.66054348,136.974071 L2.96304348,136.974071 C2.96304348,136.974071 6.59532609,103.1855 7.1726087,91.6097857 C7.80097826,79.0433571 9.07304348,52.9197857 9.07304348,52.9197857 L21.686413,52.9354286 Z" id="Path" fill="#263238"></path>
                        <path d="M2.77402174,134.700643 C2.74847826,134.700643 2.64119565,137.125286 2.64119565,137.125286 L9.99771739,137.125286 L10.508587,134.627643 L2.77402174,134.700643 Z" id="Path" fill="#0B7785"></path>
                        <path d="M17.8804348,6.6795 C17.9519565,6.9715 18.1563043,7.20092857 18.3453261,7.13835714 C18.5343478,7.07578571 18.6263043,6.82028571 18.5598913,6.52828571 C18.4934783,6.23628571 18.2840217,6.00685714 18.095,6.06942857 C17.9059783,6.132 17.8140217,6.38228571 17.8804348,6.6795 Z" id="Path" fill="#263238"></path>
                        <path d="M21.1091304,5.95992857 C21.1806522,6.25714286 21.385,6.48135714 21.5740217,6.41878571 C21.7630435,6.35621429 21.855,6.10592857 21.788587,5.80871429 C21.7221739,5.5115 21.5127174,5.28728571 21.3236957,5.34985714 C21.1346739,5.41242857 21.0427174,5.66271429 21.1091304,5.95992857 Z" id="Path" fill="#263238"></path>
                        <path d="M20.1180435,6.33535714 C20.668779,7.16114655 21.3250861,7.90817674 22.0695652,8.55664286 C21.7411565,8.93640271 21.2627299,9.14513348 20.7668478,9.125 L20.1180435,6.33535714 Z" id="Path" fill="#630F0F"></path>
                        <path d="M20.1282609,11.1429286 C20.1506952,11.1368324 20.1698043,11.1218222 20.1813225,11.1012487 C20.1928408,11.0806751 20.1958092,11.0562511 20.1895652,11.0334286 C20.1749063,10.9875027 20.1284905,10.9604312 20.0822826,10.9708571 C19.361178,11.1677262 18.5913248,11.0032188 18.0081522,10.5276429 C17.9927525,10.511394 17.9715514,10.5022196 17.9494022,10.5022196 C17.9272529,10.5022196 17.9060519,10.511394 17.8906522,10.5276429 C17.8730578,10.5434804 17.8629784,10.5662702 17.8629784,10.5902143 C17.8629784,10.6141583 17.8730578,10.6369482 17.8906522,10.6527857 C18.5146484,11.1765786 19.3486411,11.3592627 20.1282609,11.1429286 Z" id="Path" fill="#7F3E3B"></path>
                        <path d="M16.6594565,5.81914286 C16.7114846,5.80635707 16.7548338,5.7698067 16.7769565,5.72007143 C16.9385412,5.30544372 17.2903582,4.99904746 17.7169565,4.90142857 C17.767065,4.89922921 17.8137961,4.87502982 17.8451275,4.83505606 C17.8764589,4.79508231 17.8893319,4.74323663 17.8804348,4.69285714 C17.8647225,4.59593402 17.7766591,4.52909754 17.6811957,4.54164286 C17.1319478,4.65543456 16.6785216,5.04930516 16.4806522,5.5845 C16.4440111,5.67384461 16.4821335,5.77684262 16.5675,5.81914286 C16.597792,5.82592572 16.6291645,5.82592572 16.6594565,5.81914286 L16.6594565,5.81914286 Z" id="Path" fill="#263238"></path>
                        <path d="M22.2892391,4.45821429 C22.3134984,4.44818165 22.3359451,4.43408282 22.3556522,4.4165 C22.4232015,4.34731557 22.4232015,4.23539871 22.3556522,4.16621429 C21.9919559,3.73288192 21.446603,3.50402581 20.8894565,3.55092857 C20.7950206,3.56690333 20.7310478,3.65784996 20.746413,3.75428571 C20.7644424,3.84974481 20.8508952,3.91535892 20.9456522,3.9055 L20.9456522,3.9055 C21.387747,3.87077582 21.8192431,4.05509027 22.1053261,4.40085714 C22.1511737,4.45377268 22.2222445,4.4759376 22.2892391,4.45821429 L22.2892391,4.45821429 Z" id="Path" fill="#263238"></path>
                        <path d="M5.03717391,23.8292857 L9.88532609,26.1183571 C9.88532609,26.1183571 5.21086957,38.2780714 6.00782609,39.9935714 C7.09597826,42.3347857 7.94913043,47.5334286 9.72184783,50.0467143 C9.6298913,50.6567857 8.91467391,52.1324286 8.43956522,52.4400714 C4.56206522,50.3074286 0.735652174,42.5329286 0.526195652,40.1969286 C0.0459782609,34.8731429 5.03717391,23.8292857 5.03717391,23.8292857 Z" id="Path" fill="#7F3E3B"></path>
                        <path d="M7.15217391,18.9487143 C3.70891304,19.4701429 0.0408695652,31.6872143 0.0408695652,31.6872143 L8.42423913,35.4571429 C8.42423913,35.4571429 10.4677174,30.0603571 11.9390217,25.7377143 C13.4818478,21.2169286 10.8508696,18.396 7.15217391,18.9487143 Z" id="Path" fill="#0B7785"></path>
                        <path d="M8.91978261,142.498054 C9.16468987,142.52284 9.4086756,142.437512 9.60945652,142.256857 C9.73521174,142.110182 9.78979085,141.888813 9.7525,141.676683 C9.74868676,141.541358 9.6854493,141.420319 9.58902174,141.36378 C9.1701087,141.096508 8.05641304,142.015661 7.91847826,142.126481 C7.89058226,142.151301 7.87660572,142.194613 7.88271739,142.237301 C7.89225748,142.281702 7.91944261,142.316391 7.95423913,142.328564 C8.27018089,142.430474 8.59401153,142.487318 8.91978261,142.498054 Z M9.4051087,141.533269 C9.44380318,141.522294 9.48391421,141.522294 9.5226087,141.533269 C9.55933144,141.560284 9.58251395,141.609586 9.58391304,141.663645 C9.60734254,141.808677 9.57067557,141.958891 9.48684783,142.061293 C9.08145235,142.305024 8.61718589,142.335465 8.19434783,142.146037 C8.56105415,141.838783 8.97304997,141.630271 9.4051087,141.533269 L9.4051087,141.533269 Z" id="Shape" fill="#407BFF"></path>
                        <path d="M7.98396788,142.125786 C7.99852639,142.130557 8.01440958,142.130557 8.02896809,142.125786 C8.428345,141.917214 9.15397347,141.082929 9.04709796,140.686643 C9.00921656,140.550545 8.87807313,140.454571 8.72647143,140.452 C8.58160272,140.433686 8.43541081,140.475677 8.32709452,140.566714 C7.88834242,140.921286 7.88271739,141.995429 7.88271739,142.042357 C7.88301854,142.07638 7.90213272,142.107879 7.93334263,142.125786 L7.98396788,142.125786 Z M8.67584619,140.613643 L8.71522138,140.613643 C8.84459699,140.613643 8.85584705,140.681429 8.86147208,140.702286 C8.93459743,140.947357 8.47334522,141.567857 8.07959333,141.854643 C8.07284527,141.437895 8.20656111,141.029583 8.46209516,140.686643 C8.52073649,140.637994 8.59717324,140.61189 8.67584619,140.613643 L8.67584619,140.613643 Z" id="Shape" fill="#407BFF"></path>
                        <path d="M28.3532609,142.492615 C28.6633599,142.529671 28.9739665,142.428792 29.2319565,142.207233 C29.3481827,142.069969 29.4019826,141.867496 29.375,141.668897 C29.3658341,141.545071 29.3082428,141.435395 29.2217391,141.377028 C28.7670652,141.059215 27.3315217,142.025625 27.1782609,142.116429 C27.1475868,142.141589 27.1315464,142.18741 27.1373913,142.233177 C27.143457,142.279766 27.1722169,142.316279 27.208913,142.32398 C27.5855043,142.424453 27.9685551,142.4809 28.3532609,142.492615 L28.3532609,142.492615 Z M28.9816304,141.532691 C29.0377359,141.529873 29.0936183,141.543176 29.1451087,141.571607 C29.178994,141.594888 29.2004438,141.639451 29.2013043,141.688355 C29.2220464,141.817568 29.1870068,141.951027 29.1093478,142.038597 C28.8947826,142.298036 28.2970652,142.336952 27.4847826,142.168317 C27.9506866,141.847148 28.4572846,141.632025 28.9816304,141.532691 L28.9816304,141.532691 Z" id="Shape" fill="#407BFF"></path>
                        <path d="M27.2191304,142.125786 L27.2497826,142.125786 C27.6840217,141.922429 28.5218478,141.119429 28.435,140.697071 C28.435,140.598 28.3430435,140.472857 28.1029348,140.446786 C27.9309249,140.428303 27.7590567,140.483004 27.6278261,140.598 C27.1833696,140.989071 27.1169564,141.995429 27.1169564,142.037143 C27.1168995,142.068552 27.132239,142.097908 27.1578261,142.115357 C27.1763009,142.126433 27.1981349,142.130147 27.2191304,142.125786 Z M28.0416304,140.613643 L28.0927174,140.613643 C28.251087,140.613643 28.2613043,140.691857 28.266413,140.712714 C28.3175,140.968214 27.7555435,141.599143 27.3161957,141.8755 C27.3348448,141.456007 27.4853101,141.053787 27.7453261,140.728357 C27.826409,140.653386 27.9322305,140.612417 28.0416304,140.613643 Z" id="Shape" fill="#407BFF"></path>
                        <path d="M9.2876087,49.9789286 L12.7359783,50.5003571 L10.1816304,53.9365714 C10.1816304,53.9365714 7.18282609,53.3838571 7.14195652,50.9383571 L9.2876087,49.9789286 Z" id="Path" fill="#7F3E3B"></path>
                        <polygon id="Path" fill="#7F3E3B" points="15.1472826 52.8885 12.6951087 55.8762857 10.1918478 53.9313571 12.7359783 50.4951429"></polygon>
                    </g>
                    <g id="character-1--inject-150" transform="translate(39.000000, 57.000000)" fill-rule="nonzero">
                        <path d="M13.4075325,0.930622407 C13.4075325,0.930622407 9.94649351,-0.522821577 7.17233766,1.21817427 C4.39818182,2.95917012 6.67714286,3.26763485 3.63142857,4.63219917 C0.585714286,5.99676349 3.98818182,7.8580083 3.63142857,9.6146888 C3.20545455,11.7059751 -0.367402597,12.6052282 1.65064935,15.046805 C3.6687013,17.4883347 18.8653247,18.7379253 20.5212987,15.700332 C22.1772727,12.6627386 18.3914286,12.6836515 19.3125974,10.1009129 C20.2337662,7.51817427 20.7076623,5.85560166 18.1571429,4.24008299 C15.6066234,2.62456432 16.2935065,-0.261410788 13.4075325,0.930622407 Z" id="Path" fill="#263238"></path>
                        <path d="M24.0515584,23.0041494 C24.2006494,23.8511203 24.387013,24.813112 24.584026,25.7123651 C24.781039,26.6116183 25.01,27.5422407 25.2709091,28.4414938 C25.7757708,30.2385432 26.3964595,32.0022652 27.1292208,33.7219917 C27.3049351,34.1559336 27.5125974,34.5637344 27.7042857,34.9819917 L27.7575325,35.0970124 L27.7575325,35.13361 C27.7575325,35.13361 27.7575325,35.13361 27.7309091,35.13361 C27.6351582,35.0654116 27.5190052,35.0304612 27.4007792,35.0342739 C27.3102597,35.0342739 27.3368831,35.0760996 27.4274026,35.0342739 C27.5592019,34.9943156 27.6860139,34.93995 27.8054545,34.8721992 C28.1533393,34.6728131 28.4813626,34.441755 28.7851948,34.1820747 C30.188476,32.9342615 31.4833111,31.5736943 32.6562338,30.1145228 L34.2536364,31.0712863 C33.362416,32.9377709 32.2178588,34.6771463 30.8511688,36.2419917 C30.4564846,36.6784475 30.0176016,37.0743448 29.5412987,37.4235685 C29.2499424,37.629014 28.9376647,37.8042258 28.6094805,37.94639 C28.1614046,38.1434742 27.673095,38.2365044 27.1824675,38.2182573 C26.5669729,38.1859934 25.9802208,37.9522312 25.5158442,37.5542739 C25.318099,37.3874351 25.1395465,37.199845 24.9833766,36.9948548 C24.9141558,36.9007469 24.8555844,36.8118672 24.8023377,36.7229876 C24.7490909,36.6341079 24.7118182,36.5661411 24.6798701,36.5086307 C24.4349351,36.0537759 24.1474026,35.6041494 23.9503896,35.1440664 C23.0352627,33.3110684 22.2765578,31.4066974 21.6820779,29.4505394 C21.3785714,28.4833195 21.1016883,27.5056432 20.8780519,26.5175104 C20.6544156,25.5293776 20.4467532,24.5621577 20.302987,23.4851452 L24.0515584,23.0041494 Z" id="Path" fill="#FFB573"></path>
                        <path d="M22.5979221,18.9261411 C24.1367532,19.2084647 25.5850649,25.2522822 25.5850649,25.2522822 L21.5968831,28.2898755 C21.5968831,28.2898755 17.2093506,22.3767635 18.268961,20.6723651 C19.3285714,18.9679668 20.3562338,18.513112 22.5979221,18.9261411 Z" id="Path" fill="#263238"></path>
                        <polygon id="Path" fill="#000000" opacity="0.2" points="22.55 20.2959336 24.1048052 26.3815768 21.8631169 28.0859751"></polygon>
                        <path d="M34.1684416,29.2204979 L37.1662338,28.7238174 L35.4144156,31.960083 C35.4144156,31.960083 33.0555844,31.9966805 32.3154545,30.6843983 L32.4911688,30.3759336 C32.8464752,29.7641754 33.4616735,29.3403791 34.1684416,29.2204979 Z" id="Path" fill="#FFB573"></path>
                        <polygon id="Path" fill="#FFB573" points="39.754026 29.5917012 38.7157143 32.4985892 35.4144156 31.960083 37.1662338 28.7238174"></polygon>
                        <polygon id="Path" fill="#FFB573" points="29.93 121.759917 33.4762338 120.803154 31.4635065 112.683734 27.9172727 113.640498"></polygon>
                        <path d="M33.4762338,120.191452 L29.5146753,121.320747 C29.3717675,121.358886 29.2803479,121.495776 29.3016883,121.639668 L29.7596104,124.844564 C29.7890203,125.007454 29.887832,125.150278 30.0312162,125.237146 C30.1746003,125.324014 30.3489263,125.34667 30.5103896,125.299419 C31.8841558,124.881162 32.5284416,124.614523 34.2696104,124.117842 C35.3345455,123.809378 38.4548052,123.04083 39.9350649,122.617344 C41.4153247,122.193859 41.0692208,120.735187 40.4142857,120.782241 C37.4750649,120.986141 35.2866234,120.740415 34.1311688,120.259419 C33.9278866,120.161516 33.6958685,120.137438 33.4762338,120.191452 L33.4762338,120.191452 Z" id="Path" fill="#263238"></path>
                        <g id="Group" opacity="0.2" transform="translate(27.688312, 112.406639)" fill="#000000">
                            <polygon id="Path" points="3.77519481 0.282323651 4.80818182 4.46489627 1.26727273 5.42165975 0.228961039 1.23385892"></polygon>
                        </g>
                        <path d="M22.5979221,18.9261411 C22.5979221,18.9261411 24.387013,19.4489627 22.2411688,40.7643983 L7.33207792,41.6845643 C7.20428571,35.7191701 6.97532468,32.0489627 3.29597403,20.01361 C5.35990905,19.4670654 7.46160277,19.0686696 9.58441558,18.8215768 C11.8255072,18.5242091 14.0853726,18.3844342 16.3467532,18.4033195 C19.2646753,18.4660581 22.5979221,18.9261411 22.5979221,18.9261411 Z" id="Path" fill="#407BFF"></path>
                        <g id="Group" opacity="0.4" transform="translate(3.194805, 18.298755)" fill="#263238">
                            <path d="M19.4031169,0.627385892 C19.4031169,0.627385892 21.1922078,1.15020747 19.0463636,22.4656432 L4.13727273,23.3858091 C4.00948052,17.4204149 3.78051948,13.7502075 0.101168831,1.71485477 C2.16510386,1.16831017 4.26679757,0.769914378 6.38961039,0.522821577 C8.63070202,0.225453882 10.8905674,0.0856789757 13.1519481,0.104564315 C16.0698701,0.167302905 19.4031169,0.627385892 19.4031169,0.627385892 Z" id="Path"></path>
                        </g>
                        <path d="M9.77077922,11.2877178 C10.3351948,13.3790041 11.0114286,17.2844813 9.57909091,18.8058921 C9.57909091,18.8058921 10.3138961,20.9337759 14.3712987,20.6880498 C18.8174026,20.4109544 16.3574026,18.3876349 16.3574026,18.3876349 C13.8974026,17.9693776 13.8441558,16.1970124 14.1583117,14.513527 L9.77077922,11.2877178 Z" id="Path" fill="#FFB573"></path>
                        <path d="M9.58441558,18.8215768 C11.8237167,18.5241559 14.0818156,18.3843802 16.3414286,18.4033195 L16.7887013,18.4033195 C17.3903896,19.3757676 17.63,20.9128631 16.4798701,23.2551037 C16.4798701,23.2551037 10.3990909,21.2788382 8.69519481,18.9209129 L9.58441558,18.8215768 Z" id="Path" fill="#FFB573"></path>
                        <path d="M11.5545455,12.6052282 L14.1423377,14.5082988 C14.0646919,14.9013781 14.0201689,15.3000717 14.0092208,15.700332 C13.0774026,15.6271369 11.6024675,14.7592531 11.4427273,13.8129461 C11.3516132,13.4087244 11.3906877,12.9866905 11.5545455,12.6052282 Z" id="Path" fill="#000000" opacity="0.2"></path>
                        <path d="M7.18831169,7.73253112 C8.25324675,11.1570124 8.61,12.6313693 10.8303896,14.00639 C14.1636364,16.0715353 18.221039,14.053444 18.2316883,10.3832365 C18.2316883,7.08423237 16.5171429,2.01809129 12.7206494,1.45344398 C11.0196559,1.18325241 9.29754889,1.7978104 8.17018998,3.07733909 C7.04283108,4.35686779 6.67124233,6.11861054 7.18831169,7.73253112 Z" id="Path" fill="#FFB573"></path>
                        <path d="M13.3968831,1.24954357 C13.8388312,2.90688797 9.81337662,8.74157676 7.56636364,10.3414108 C5.43649351,8.04622407 5.55363636,5.08182573 6.47480519,3.57087137 C7.39597403,2.05991701 9.58441558,0.433941909 13.3968831,1.24954357 Z" id="Path" fill="#263238"></path>
                        <path d="M13.6844156,1.30182573 C15.4681818,1.79850622 17.3371429,3.87410788 16.3467532,3.79045643 C15.3563636,3.70680498 11.054026,1.83510373 13.6844156,1.30182573 Z" id="Path" fill="#263238"></path>
                        <path d="M22.2411688,40.780083 C22.2411688,40.780083 26.4263636,67.0518672 27.8480519,77.9631535 C29.322987,89.3188382 32.9544156,115.710871 32.9544156,115.710871 L28.1622078,117.070207 C28.1622078,117.070207 21.0431169,91.2062241 18.9132468,80.1537759 C16.597013,68.1288797 11.3149351,41.4649793 11.3149351,41.4649793 L22.2411688,40.780083 Z" id="Path" fill="#0B7785"></path>
                        <g id="Group" opacity="0.2" transform="translate(11.181818, 40.780083)" fill="#000000">
                            <path d="M11.0593506,0 C11.0593506,0 15.2445455,26.2717842 16.6662338,37.1830705 C17.5502656,43.9893273 19.2090056,56.197308 20.3961967,64.8866404 C21.1897372,70.694751 21.7725974,74.9307884 21.7725974,74.9307884 L16.9803896,76.2901245 C16.9803896,76.2901245 9.8612987,50.4261411 7.73142857,39.3736929 C5.41519481,27.3487967 0.133116883,0.684896266 0.133116883,0.684896266 L11.0593506,0 Z" id="Path"></path>
                        </g>
                        <polygon id="Path" fill="#263238" points="27.8161039 117.342075 33.4123377 115.742241 33.3058442 113.875768 26.9748052 115.449461"></polygon>
                        <polygon id="Path" fill="#FFB573" points="19.088961 120.207137 22.6245455 121.174357 23.5723377 113.593444 19.8983117 113.593444"></polygon>
                        <polygon id="Path" fill="#000000" opacity="0.2" points="19.4350649 117.362988 23.0079221 118.126307 23.5723377 113.593444 19.8983117 113.593444"></polygon>
                        <path d="M22.7842857,120.824066 L18.7375325,119.731369 C18.5926322,119.692817 18.4394854,119.755114 18.3648052,119.882988 L17.1188312,122.784647 C17.0419957,122.929604 17.038608,123.101499 17.1096744,123.249266 C17.1807408,123.397034 17.3180862,123.503675 17.4809091,123.53751 C18.9025974,123.893029 19.3019481,123.950539 21.0857143,124.431535 C22.1772727,124.724315 24.781039,125.968631 27.6031169,125.968631 C29.11,125.968631 28.9502597,124.400166 28.3166234,124.269461 C25.4785714,123.662988 23.992987,122.178174 23.3114286,121.190041 C23.1850751,121.010918 22.9984013,120.881318 22.7842857,120.824066 L22.7842857,120.824066 Z" id="Path" fill="#263238"></path>
                        <path d="M18.8546753,40.9630705 C18.8546753,40.9630705 33.1887013,71.0253112 31.9267532,80.4517842 C30.3879221,91.9277178 23.8119481,116.102988 23.8119481,116.102988 L18.8014286,115.130539 C18.8014286,115.130539 21.4637662,90.8611618 22.4967532,79.6204979 C23.6362338,67.3707884 8.19467532,57.8658921 7.22025974,41.6950207 L18.8546753,40.9630705 Z" id="Path" fill="#0B7785"></path>
                        <polygon id="Path" fill="#263238" points="18.3222078 116.265062 24.174026 117.53029 24.7331169 115.56971 18.4180519 114.189461"></polygon>
                        <path d="M23.9876623,122.096587 C24.2917716,122.257382 24.6244171,122.273318 24.9354545,122.141993 C25.091187,122.055964 25.2094769,121.871032 25.2549351,121.642524 C25.2906965,121.517303 25.2696585,121.373781 25.2016883,121.279274 C24.8662338,120.779806 23.1623377,121.211165 22.9706494,121.279274 C22.9328726,121.292443 22.902625,121.332567 22.8907792,121.385222 C22.8817973,121.433 22.8972669,121.483255 22.9280519,121.506306 C23.2664787,121.752929 23.6214594,121.95068 23.9876623,122.096587 L23.9876623,122.096587 Z M24.9194805,121.339816 C24.9723417,121.355409 25.0217056,121.389189 25.0632468,121.438196 C25.08227,121.485025 25.08227,121.542721 25.0632468,121.58955 C25.0324001,121.737222 24.9559916,121.856956 24.8555844,121.914962 C24.5627273,122.096587 23.9663636,121.914962 23.2315584,121.423061 C23.7875112,121.266937 24.3577095,121.241372 24.9194805,121.347384 L24.9194805,121.339816 Z" id="Shape" fill="#407BFF"></path>
                        <path d="M22.944026,121.352116 L22.9812987,121.352116 C23.4818182,121.284149 24.6266234,120.792697 24.7277922,120.395353 C24.7277922,120.301245 24.7277922,120.170539 24.5094805,120.08166 C24.3384321,120.015263 24.1480614,120.015263 23.977013,120.08166 C23.5184847,120.356259 23.1490963,120.753412 22.9120779,121.226639 C22.8956678,121.252195 22.8956678,121.284734 22.9120779,121.31029 L22.944026,121.352116 Z M24.371039,120.22805 L24.4242857,120.22805 C24.5680519,120.28556 24.5520779,120.343071 24.5467532,120.363983 C24.4881818,120.604481 23.6788312,121.01751 23.141039,121.142988 C23.3477943,120.762618 23.6597134,120.447289 24.0409091,120.233278 C24.1498609,120.20399 24.2654759,120.209483 24.371039,120.248963 L24.371039,120.22805 Z" id="Shape" fill="#407BFF"></path>
                        <path d="M13.0561039,7.34564315 C13.1253247,7.63319502 13.332987,7.826639 13.5193506,7.77958506 C13.7057143,7.73253112 13.8068831,7.47112033 13.7376623,7.18879668 C13.6684416,6.90647303 13.4661039,6.71302905 13.2744156,6.75485477 C13.0827273,6.7966805 12.9868831,7.0633195 13.0561039,7.34564315 Z" id="Path" fill="#263238"></path>
                        <path d="M16.3148052,6.59278008 C16.384026,6.87510373 16.5916883,7.06854772 16.7833766,7.02672199 C16.9750649,6.98489627 17.0655844,6.71825726 17.0016883,6.43593361 C16.9377922,6.15360996 16.7248052,5.95493776 16.5331169,6.0019917 C16.3414286,6.04904564 16.2509091,6.31045643 16.3148052,6.59278008 Z" id="Path" fill="#263238"></path>
                        <path d="M16.4585714,6.03858921 L17.1028571,5.67784232 C17.1028571,5.67784232 16.8738961,6.27385892 16.4585714,6.03858921 Z" id="Path" fill="#263238"></path>
                        <path d="M15.4415584,7.31950207 C15.8522375,7.90561031 16.3431703,8.4333905 16.9005195,8.8879668 C16.655121,9.16682029 16.29604,9.32394654 15.9207792,9.3166805 L15.4415584,7.31950207 Z" id="Path" fill="#ED893E"></path>
                        <path d="M14.6055844,10.806722 C14.752754,10.7956637 14.8987713,10.772934 15.0422078,10.7387552 C15.0883391,10.7260041 15.1163542,10.6801581 15.1061039,10.6341909 C15.0931175,10.5888952 15.0464257,10.5613877 14.9996104,10.5714523 C14.276507,10.7560863 13.5070787,10.591005 12.9283117,10.1270539 C12.8936845,10.095824 12.8404714,10.095824 12.8058442,10.1270539 C12.7706416,10.1617386 12.7706416,10.2178465 12.8058442,10.2525311 C13.3075099,10.6636876 13.9546362,10.8629561 14.6055844,10.806722 L14.6055844,10.806722 Z" id="Path" fill="#263238"></path>
                        <path d="M6.9912987,11.1413278 C7.38396225,11.7163734 7.99291636,12.1149884 8.68454545,12.2497095 C9.60571429,12.4222407 9.98376623,11.6014108 9.66428571,10.7910373 C9.37675325,10.0590871 8.55142857,9.09186722 7.66220779,9.2853112 C7.269117,9.37885112 6.9506321,9.66082538 6.81534261,10.035093 C6.68005312,10.4093606 6.74622582,10.825388 6.9912987,11.1413278 Z" id="Path" fill="#FFB573"></path>
                        <path d="M11.5918182,7.00058091 C11.6670866,6.99538898 11.7299137,6.94220878 11.7462338,6.86987552 C11.9531049,6.34325973 12.3735586,5.9247416 12.907013,5.71443983 C12.9966206,5.67826266 13.039496,5.57769373 13.0028571,5.48962656 C12.9862755,5.44774171 12.9532302,5.41416759 12.9111637,5.39646566 C12.8690971,5.37876374 12.8215464,5.37842245 12.7792208,5.39551867 C12.1391787,5.64217965 11.6398206,6.14966202 11.4107792,6.78622407 C11.3979493,6.83066011 11.4043991,6.87832716 11.4286007,6.91793237 C11.4528022,6.95753759 11.4926022,6.98555707 11.5385714,6.9953527 L11.5918182,7.00058091 Z" id="Path" fill="#263238"></path>
                        <path d="M16.9431169,4.88838174 C17.0035369,4.88120063 17.0568936,4.84627384 17.0868831,4.79427386 C17.1261439,4.70890763 17.0912044,4.60827502 17.007013,4.56423237 C16.5068422,4.30670918 15.9097812,4.30670918 15.4096104,4.56423237 C15.3706978,4.58704296 15.3426434,4.62413503 15.3316517,4.6673053 C15.32066,4.71047556 15.3276367,4.75616677 15.351039,4.79427386 C15.3996926,4.87639776 15.5068099,4.90444492 15.5906494,4.85701245 L15.5906494,4.85701245 C15.985398,4.6596007 16.452524,4.6596007 16.8472727,4.85701245 C16.8767167,4.8737578 16.9093291,4.8844317 16.9431169,4.88838174 Z" id="Path" fill="#263238"></path>
                        <path d="M5.57493506,24.8915353 C5.25012987,26.8050622 4.93064935,28.7656432 4.63246753,30.7053112 C4.33428571,32.6449793 4.06805195,34.5898755 3.91363636,36.5138589 L3.86038961,37.2039834 C3.84562551,37.3552551 3.84562551,37.5075664 3.86038961,37.6588382 C3.91700432,38.0814338 3.9987895,38.5004091 4.10532468,38.91361 C4.33961039,39.7971784 4.63779221,40.7173444 4.9625974,41.6322822 C5.59623377,43.4726141 6.34701299,45.3181743 7.09246753,47.1585062 L5.45246753,48.0159336 C4.3033208,46.3156635 3.26300037,44.546854 2.33753247,42.719751 C1.86066512,41.7806208 1.43931717,40.8152858 1.07558442,39.8285477 C0.87568646,39.290278 0.717274896,38.738017 0.601688312,38.1764315 C0.531657544,37.8321115 0.495990915,37.4819064 0.495194805,37.1307884 L0.495194805,36.3308714 C0.548441558,34.2674689 0.699307359,32.2302075 0.947792208,30.2190871 C1.18207792,28.2009959 1.48025974,26.2142739 1.87961039,24.2014108 L5.57493506,24.8915353 Z" id="Path" fill="#FFB573"></path>
                        <path d="M3.31194805,20.01361 C1.84766234,20.5364315 0.378051948,25.7071369 0.378051948,25.7071369 L6.42688312,29.4139419 C6.42688312,29.4139419 8.26922078,25.0692946 7.51844156,23.2185062 C6.74103896,21.2840664 4.97857143,19.4019087 3.31194805,20.01361 Z" id="Path" fill="#263238"></path>
                        <path d="M34.9831169,120.416266 C35.290523,120.356239 35.568238,120.195945 35.7711688,119.961411 C35.855258,119.827655 35.8691121,119.662474 35.8084416,119.517012 C35.773699,119.427494 35.6958351,119.360842 35.6007792,119.339253 C35.1002597,119.229461 33.9022078,120.337842 33.7637662,120.46332 C33.7431624,120.493341 33.7431624,120.532634 33.7637662,120.562656 C33.7779332,120.595564 33.8129621,120.614911 33.848961,120.60971 C34.2325649,120.581951 34.6124511,120.517156 34.9831169,120.416266 Z M35.3984416,119.522241 C35.452751,119.509948 35.5091971,119.509948 35.5635065,119.522241 C35.6012833,119.531338 35.6315308,119.559058 35.6433766,119.595436 C35.6916956,119.687263 35.6916956,119.796388 35.6433766,119.888216 C35.4836364,120.13917 34.9138961,120.337842 34.0938961,120.411037 C34.4740156,120.04398 34.9152117,119.74339 35.3984416,119.522241 Z" id="Shape" fill="#407BFF"></path>
                        <path d="M33.8773396,120.60971 C33.8773396,120.60971 33.9084075,120.60971 33.914621,120.60971 C34.3433577,120.306473 35.0579188,119.323568 34.8466572,118.947137 C34.7969486,118.858257 34.6788907,118.764149 34.3992799,118.805975 C34.1980449,118.835646 34.020368,118.934051 33.9084075,119.077842 C33.6702052,119.54627 33.6157881,120.066417 33.7530681,120.562656 C33.7585631,120.592776 33.7820141,120.618427 33.8152039,120.630622 L33.8773396,120.60971 Z M34.3744256,118.962822 L34.4365613,118.962822 C34.616755,118.962822 34.6478229,118.994191 34.66025,119.009876 C34.7907351,119.234689 34.3309306,119.982324 33.9208346,120.358755 C33.8203209,119.955909 33.8747241,119.536602 34.076174,119.161494 C34.1432632,119.066729 34.2494116,118.996021 34.3744256,118.962822 L34.3744256,118.962822 Z" id="Shape" fill="#407BFF"></path>
                        <path d="M13.1945455,6.7966805 L13.8441558,6.44116183 C13.8441558,6.44116183 13.6151948,7.04763485 13.1945455,6.7966805 Z" id="Path" fill="#263238"></path>
                        <path d="M7.07116883,40.8375934 L6.77831169,42.1707884 C6.73038961,42.2753527 6.85818182,42.3746888 7.0338961,42.3642324 L22.3636364,41.4126971 C22.4967532,41.4126971 22.6032468,41.3342739 22.6085714,41.2506224 L22.6564935,39.933112 C22.6564935,39.8442324 22.5393506,39.7710373 22.3902597,39.7814938 L7.31077922,40.7173444 C7.21533528,40.7150503 7.1251813,40.7602943 7.07116883,40.8375934 Z" id="Path" fill="#263238"></path>
                        <path d="M9.20636364,42.3485477 L8.80168831,42.3485477 C8.72181818,42.3485477 8.65792208,42.3171784 8.65792208,42.2648963 L8.73779221,40.5552697 C8.73779221,40.5029876 8.80701299,40.4611618 8.88688312,40.4559336 L9.29155844,40.4297925 C9.37142857,40.4297925 9.43532468,40.4611618 9.43532468,40.513444 L9.35545455,42.2230705 C9.35012987,42.3485477 9.28623377,42.3485477 9.20636364,42.3485477 Z" id="Path" fill="#407BFF"></path>
                        <path d="M21.2294805,41.6270539 L20.8301299,41.6270539 C20.7449351,41.6270539 20.681039,41.5904564 20.6863636,41.5434025 L20.7662338,39.8285477 C20.7662338,39.7814938 20.8354545,39.7344398 20.9153247,39.7292116 L21.32,39.7292116 C21.3998701,39.7292116 21.4637662,39.7605809 21.4637662,39.8076349 L21.3838961,41.5224896 C21.3785714,41.5747718 21.2987013,41.6218257 21.2294805,41.6270539 Z" id="Path" fill="#407BFF"></path>
                        <path d="M15.2179221,41.9982573 L14.8132468,42.0243983 C14.7333766,42.0243983 14.6694805,41.993029 14.6694805,41.9407469 L14.7546753,40.2311203 C14.7546753,40.1788382 14.8238961,40.1317842 14.9037662,40.126556 L15.3084416,40.126556 C15.3883117,40.126556 15.4522078,40.1579253 15.4468831,40.2049793 L15.367013,41.919834 C15.367013,41.9459751 15.2977922,41.993029 15.2179221,41.9982573 Z" id="Path" fill="#407BFF"></path>
                        <path d="M6.99662338,46.8082158 L10.0157143,49.3386722 L6.32571429,49.9346888 C6.32571429,49.9346888 4.87207792,48.1152697 5.48441558,46.740249 L6.99662338,46.8082158 Z" id="Path" fill="#FFB573"></path>
                        <polygon id="Path" fill="#FFB573" points="10.6280519 52.313527 7.51311688 52.6481328 6.32571429 49.9346888 10.0157143 49.3386722"></polygon>
                    </g>
                    <g id="Brainstorm--inject-150" transform="translate(60.000000, 0.000000)" fill-rule="nonzero">
                        <ellipse id="Oval" fill="#E88302" cx="70.45181" cy="25.9844" rx="25.9140271" ry="25.896"></ellipse>
                        <path d="M18.0513575,15.6936 L17.7079186,15.3036 C19.8035942,13.4361686 22.5129664,12.4035111 25.3208145,12.402 L25.3208145,12.922 C22.6394506,12.9233251 20.0521656,13.9097701 18.0513575,15.6936 Z" id="Path" fill="#0B7785"></path>
                        <path d="M15.0904977,20.0148 L14.6013575,19.8328 C14.9082044,19.0166044 15.3080455,18.2384163 15.7929864,17.5136 L16.2248869,17.8048 C15.765112,18.4966792 15.3845949,19.237997 15.0904977,20.0148 L15.0904977,20.0148 Z" id="Path" fill="#0B7785"></path>
                        <circle id="Oval" fill="#E88302" transform="translate(25.322322, 23.849890) rotate(-45.000000) translate(-25.322322, -23.849890) " cx="25.3223223" cy="23.8498903" r="9.63375263"></circle>
                        <ellipse id="Oval" fill="#E88302" cx="5.94253394" cy="43.1444" rx="5.91131222" ry="5.9072"></ellipse>
                        <ellipse id="Oval" fill="#E88302" cx="110.129412" cy="26.1144" rx="4.68846154" ry="4.6852"></ellipse>
                        <path d="M84.2414063,21.4916 C84.2463291,14.6288862 79.1971832,8.80850909 72.3984637,7.83971276 C65.5997442,6.87091643 59.1238627,11.049013 57.209069,17.6395767 C55.2942753,24.2301404 58.5242441,31.2242106 64.7850679,34.0444 L64.7850679,36.4832 L76.118552,36.4832 L76.118552,34.0444 C81.0611815,31.8208926 84.2401567,26.9082034 84.2414063,21.4916 L84.2414063,21.4916 Z" id="Path" fill="#FFFFFF"></path>
                        <polygon id="Path" fill="#000000" opacity="0.2" points="75.1402715 43.1444 65.7633484 43.1444 64.7850679 36.4832 76.118552 36.4832"></polygon>
                        <polygon id="Path" fill="#000000" opacity="0.4" points="72.7674208 44.252 68.1361991 44.252 67.6574661 43.1444 73.2461538 43.1444"></polygon>
                        <path d="M68.9791855,24.6324 C68.6600072,23.7086295 68.1248202,22.8743187 67.4180995,22.1988 C65.7893665,20.5764 63.7755656,20.0304 62.8649321,20.956 C62.3966063,21.424 62.2873303,22.178 62.5631222,23.0724 C62.8823119,23.9946572 63.4175563,24.8272746 64.1242081,25.5008 C65.2117647,26.5928 66.4710407,27.196 67.4649321,27.196 C67.6954577,27.1986464 67.924585,27.159898 68.1414027,27.0816 L69.0624434,36.5144 C69.0786351,36.6916641 69.227759,36.8271369 69.4058824,36.826403 L69.4371041,36.826403 C69.5293389,36.8185485 69.6144965,36.773822 69.6732745,36.7023585 C69.7320525,36.630895 69.7594732,36.5387465 69.7493213,36.4468 L68.7866516,26.6136 C69.1752108,26.025819 69.24731,25.283909 68.9791855,24.6324 Z M64.6133484,25.012 C63.9923056,24.4155031 63.5199934,23.6817022 63.2343891,22.8696 C63.0214712,22.4028629 63.0730034,21.8581905 63.3696833,21.4396 C63.5712765,21.2621561 63.8353316,21.1723276 64.1033937,21.19 C64.8475113,21.19 65.9298643,21.6736 66.9445701,22.6876 C67.5679053,23.2822091 68.0405947,24.0165963 68.3235294,24.83 C68.5386432,25.2963654 68.4870024,25.8421859 68.1882353,26.26 C67.6470588,26.8216 66.0859729,26.4524 64.6133484,25.012 L64.6133484,25.012 Z" id="Shape" fill="#0B7785"></path>
                        <path d="M78.0230769,20.956 C77.5495475,20.4828 76.8002262,20.3736 75.9052036,20.6492 C74.0548571,21.3244835 72.5977702,22.7824602 71.9244344,24.6324 C71.6566249,25.2833384 71.7266866,26.0243088 72.1117647,26.6136 L71.149095,36.4468 C71.1309569,36.6376149 71.2704663,36.8072333 71.4613122,36.826403 L71.4925339,36.826403 C71.6706573,36.8271369 71.8197812,36.6916641 71.8359729,36.5144 L72.7570136,27.0816 C72.9755009,27.1604038 73.2064263,27.1991582 73.4386878,27.196 C74.4273756,27.196 75.6866516,26.5928 76.7742081,25.5008 C77.48086,24.8272746 78.0161044,23.9946572 78.3352941,23.0724 C78.6006787,22.178 78.4914027,21.424 78.0230769,20.956 Z M77.6692308,22.8696 C77.3855761,23.6826533 76.9129889,24.4168815 76.2902715,25.012 C74.8488688,26.4524 73.2773756,26.8216 72.7153846,26.26 C72.4166175,25.8421859 72.3649767,25.2963654 72.5800905,24.83 C72.8649909,24.0175541 73.3374021,23.2835994 73.9590498,22.6876 L73.9590498,22.6876 C74.5559371,22.0644729 75.2925709,21.5921432 76.1081448,21.3096 C76.335136,21.23538 76.5718544,21.1950783 76.8106335,21.19 C77.0747053,21.1783912 77.3333034,21.2676292 77.5339367,21.4396 C77.8366789,21.8598425 77.8884294,22.4108008 77.6692308,22.88 L77.6692308,22.8696 Z" id="Shape" fill="#0B7785"></path>
                    </g>
                </g>
            </g>
        </g>
    </g>
</svg>