<?xml version="1.0" encoding="UTF-8"?>
<svg  viewBox="0 0 177 159" version="1.1" xmlns="http://www.w3.org/2000/svg" xmlns:xlink="http://www.w3.org/1999/xlink">
    <title>Landing Page 2 Illustration</title>
    <g id="Page-1" stroke="none" stroke-width="1" fill="none" fill-rule="evenodd">
        <g id="Landing-page-2" transform="translate(-99.000000, -373.000000)">
            <g id="Landing-Page-2-Illustration" transform="translate(99.000000, 373.000000)">
                <g id="Work-time-rafiki">
                    <g id="Shadow--inject-79" transform="translate(0.000000, 148.000000)" fill="#F5F5F5" fill-rule="nonzero">
                        <ellipse id="path--inject-79" cx="88.5" cy="5.61" rx="88.4498196" ry="5.18833333"></ellipse>
                    </g>
                    <g id="Hourglass--inject-79" transform="translate(57.000000, 64.000000)" fill-rule="nonzero">
                        <path d="M40.6241436,45.2855612 C40.6241436,45.2855612 6.92430939,64.9881633 6.92430939,83.6554592 L74.3331492,83.6554592 C74.3285635,64.9881633 40.6241436,45.2855612 40.6241436,45.2855612 Z" id="Path" fill="#407BFF" opacity="0.2"></path>
                        <path d="M40.6241436,68.7933673 C40.6241436,68.7933673 9.5060221,76.4264796 9.5060221,83.6554592 L71.7422652,83.6554592 C71.7422652,76.4264796 40.6241436,68.7933673 40.6241436,68.7933673 Z" id="Path" fill="#E88302" opacity="0.2"></path>
                        <path d="M44.7145304,50.7254592 C51.0427072,56.8873469 63.3413812,70.5415816 63.3413812,83.6554592 L54.9083978,83.6554592 C54.9083978,70.5415816 48.1766851,56.8873469 44.7145304,50.7254592 Z" id="Path" fill="#FFFFFF" opacity="0.3"></path>
                        <path d="M40.6241436,45.2855612 C40.6241436,45.2855612 6.92430939,25.5829592 6.92430939,6.91566327 L74.3331492,6.91566327 C74.3285635,25.5829592 40.6241436,45.2855612 40.6241436,45.2855612 Z" id="Path" fill="#407BFF" opacity="0.2"></path>
                        <path d="M40.6241436,43.487398 C40.6241436,43.487398 23.4188398,35.3139286 23.4188398,27.5491327 L57.8340331,27.5491327 C57.8340331,35.3003061 40.6241436,43.487398 40.6241436,43.487398 Z" id="Path" fill="#E88302" opacity="0.2"></path>
                        <path d="M36.9510497,39.8456633 C30.6274586,33.6837755 18.3425414,20.0295408 18.3425414,6.91566327 L26.7755249,6.91566327 C26.7571823,20.0295408 33.4751381,33.6837755 36.9510497,39.8456633 Z" id="Path" fill="#FFFFFF" opacity="0.3"></path>
                        <path d="M44.7145304,39.8456633 C51.0427072,33.6837755 63.0341436,18.4493367 63.3413812,6.91566327 L61.0944199,6.91566327 C60.0397238,20.9785714 49.7220442,33.8835714 44.7145304,39.8456633 Z" id="Path" fill="#FFFFFF" opacity="0.3"></path>
                        <rect id="Rectangle" fill="#407BFF" x="65.9322652" y="0.326938776" width="3.81983425" height="1"></rect>
                        <path d="M82.7202762,6.56602041 L82.2617127,6.56602041 C82.2591883,3.37386142 79.6478623,0.786026739 76.4241989,0.781020408 L72.3934254,0.781020408 L72.3934254,0.326938776 L76.4241989,0.326938776 C79.9000737,0.334439317 82.7152323,3.12411356 82.7202762,6.56602041 L82.7202762,6.56602041 Z" id="Path" fill="#407BFF"></path>
                        <rect id="Rectangle" fill="#0B7785" x="0.132983425" y="1.91622449" width="80.9823204" height="9.99887755" rx="4.99943878"></rect>
                        <rect id="Rectangle" fill="#0B7785" x="0.132983425" y="78.6560204" width="80.9823204" height="9.99887755" rx="4.99943878"></rect>
                    </g>
                    <g id="Character--inject-79" transform="translate(29.000000, 0.000000)" fill-rule="nonzero">
                        <polygon id="Path" fill="#FF8B7B" points="10.3782716 101.890602 7.28123457 99.1586345 12.5617284 91.1034137 15.6587654 93.8308434"></polygon>
                        <path d="M7.92074074,97.4250602 L11.8582716,100.147952 C11.9261509,100.190046 11.9744016,100.257223 11.9923944,100.334684 C12.0103872,100.412145 11.9966458,100.493535 11.9541975,100.560924 L9.9808642,103.792088 C9.74442091,104.130164 9.27859537,104.217064 8.93481481,103.987229 C7.56444444,103.020602 7.05740741,102.548635 5.41753086,101.23257 C3.79670289,99.9669905 2.24161371,98.6204504 0.758271605,97.1981526 C-0.456790123,95.9456225 0.826790123,94.7339357 1.4708642,95.1650602 C2.99197531,96.1906827 5.63679012,97.3206827 7.16703704,97.2299197 C7.43320826,97.2089455 7.6987284,97.2776911 7.92074074,97.4250602 L7.92074074,97.4250602 Z" id="Path" fill="#263238"></path>
                        <polygon id="Path" fill="#000000" opacity="0.2" points="15.6541975 93.8353815 12.5571605 91.1034137 10.0174074 94.9835341 13.1920988 97.6020482"></polygon>
                        <path d="M47.1635802,53.5955823 C47.1635802,53.5955823 26.3796296,52.1842169 23.8033333,59.1820482 C17.942716,75.0928112 10.3188889,91.9702008 10.3188889,91.9702008 L16.4444444,96.376747 C16.4444444,96.376747 29.3944444,76.7038554 33.345679,64.0741767 C41.3395062,66.0028916 55.7923457,67.650241 60.447037,62.3406024 C64.4211111,57.8024498 61.4474074,53.5955823 61.4474074,53.5955823 L47.1635802,53.5955823 Z" id="Path" fill="#263238"></path>
                        <path d="M29.3624691,65.9620482 C28.8782716,67.9043775 28.1428395,73.4681526 27.6860494,77.1576707 C28.6955556,75.2153414 29.6548148,73.2457831 30.5181481,71.3216064 L29.3624691,65.9620482 Z" id="Path" fill="#000000" opacity="0.3"></path>
                        <polygon id="Path" fill="#0B7785" points="16.0516049 98.368996 9.10382716 92.9595181 10.5244444 89.9280321 18.2898765 95.8230924"></polygon>
                        <path d="M6.25345679,97.1754618 C6.57556128,97.3839077 6.91844505,97.5587953 7.27666667,97.6973494 C7.3130525,97.7099038 7.35345999,97.7006919 7.38069614,97.6736331 C7.40793229,97.6465743 7.41720464,97.60643 7.4045679,97.5702811 C7.34518519,97.4159839 6.82444444,96.0590763 6.2808642,95.9274699 C6.15414615,95.8986413 6.02139654,95.9363227 5.9291358,96.0273092 C5.77361913,96.1497068 5.69533042,96.3450181 5.72358025,96.5401205 C5.81600948,96.8091781 6.00453397,97.0352259 6.25345679,97.1754618 Z M7.13506173,97.4250602 C6.41790123,97.1164659 5.97024691,96.7761044 5.92,96.5174297 C5.90396757,96.3887376 5.9600481,96.2616371 6.06617284,96.1861446 C6.10917572,96.1401996 6.17390196,96.1210819 6.23518519,96.1362249 C6.52753086,96.2088353 6.90666667,96.8850201 7.13506173,97.4250602 Z" id="Shape" fill="#407BFF"></path>
                        <path d="M7.25382716,97.6837349 C7.26874787,97.6880213 7.28458546,97.6880213 7.29950617,97.6837349 C7.33413332,97.6874242 7.36835033,97.6738265 7.3908642,97.6474297 C7.42283951,97.6111245 8.19938272,96.6626506 8.08518519,96.0772289 C8.05468811,95.9255608 7.9551512,95.7965027 7.81567901,95.7277912 C7.67144984,95.6379931 7.48466144,95.6546946 7.35888889,95.7686345 C7.0117284,96.0908434 7.0254321,97.18 7.23098765,97.6292771 C7.23402283,97.6490068 7.24186325,97.6677013 7.25382716,97.6837349 L7.25382716,97.6837349 Z M7.7608642,95.9456225 C7.82760241,95.9894443 7.87371791,96.0581671 7.88876543,96.1362249 C7.95728395,96.4811245 7.58728395,97.0756225 7.34518519,97.4023695 C7.21728395,96.9485542 7.25839506,96.1407631 7.48222222,95.932008 C7.52790123,95.8911647 7.59185185,95.8503213 7.72432099,95.932008 L7.7608642,95.9456225 Z" id="Shape" fill="#407BFF"></path>
                        <polygon id="Path" fill="#FF8B7B" points="37.6851852 106.651124 33.6882716 107.445301 32.9482716 96.8124096 37.0091358 96.9394779"></polygon>
                        <path d="M33.1446914,105.993092 L37.7125926,104.08253 C37.7880957,104.0456 37.8754505,104.040687 37.9546662,104.068917 C38.0338818,104.097146 38.0981776,104.156101 38.1328395,104.232289 L39.8777778,107.71759 C40.0438653,108.109886 39.8630304,108.562057 39.4712346,108.734137 C37.8724691,109.374016 37.0776543,109.596386 35.0723457,110.440482 C33.8390123,110.957831 30.5044444,112.455422 28.722963,112.895622 C26.9414815,113.335823 26.5395062,111.561406 27.2612346,111.216506 C28.9696296,110.399639 31.8017284,107.908193 32.5645679,106.533133 C32.6945196,106.295873 32.8979384,106.10651 33.1446914,105.993092 L33.1446914,105.993092 Z" id="Path" fill="#263238"></path>
                        <path d="M32.007284,107.30008 C32.3671629,107.136683 32.708614,106.935885 33.0259259,106.701044 C33.0579805,106.676464 33.0737874,106.636332 33.067037,106.596667 C33.0561269,106.557806 33.024489,106.528121 32.9848148,106.519518 C32.8203704,106.483213 31.3403704,106.188233 30.9246914,106.58759 C30.8283173,106.680227 30.788368,106.81655 30.8196296,106.946104 C30.84046,107.145979 30.9678172,107.319304 31.1530864,107.39992 C31.4404345,107.472948 31.7448413,107.437369 32.007284,107.30008 L32.007284,107.30008 Z M32.7061728,106.673815 C32.0438272,107.127631 31.5002469,107.322771 31.2307407,107.218394 C31.1081754,107.1626 31.0271361,107.043583 31.0206173,106.909799 C31.00267,106.846935 31.0201159,106.779339 31.0662963,106.732811 C31.2901235,106.519518 32.1123457,106.573976 32.7061728,106.673815 Z" id="Shape" fill="#407BFF"></path>
                        <path d="M33.0030864,106.714659 C33.0186492,106.706686 33.0325886,106.695915 33.0441975,106.682892 C33.0596469,106.652978 33.0596469,106.617503 33.0441975,106.58759 C33.0441975,106.537671 32.6239506,105.339598 32.0483951,105.117229 C31.8982814,105.05774 31.7286146,105.07291 31.5916049,105.158072 C31.4264967,105.231201 31.3351602,105.408904 31.3723457,105.584659 C31.4637037,106.038474 32.4275309,106.651124 32.9345679,106.719197 C32.9571324,106.726594 32.98171,106.724966 33.0030864,106.714659 L33.0030864,106.714659 Z M31.7560494,105.312369 C31.8319974,105.280599 31.9176322,105.280599 31.9935802,105.312369 C32.3361728,105.443976 32.651358,106.092932 32.8066667,106.483213 C32.3498765,106.333454 31.6509877,105.866024 31.5916049,105.548353 C31.5916049,105.489357 31.5916049,105.412209 31.7149383,105.339598 L31.7560494,105.312369 Z" id="Shape" fill="#407BFF"></path>
                        <polygon id="Path" fill="#000000" opacity="0.2" points="37.0137037 96.9440161 32.9482716 96.8124096 33.3365432 102.367108 37.3837037 102.294498"></polygon>
                        <path d="M57.258642,53.5955823 C57.258642,53.5955823 27.567284,56.3865462 28.6361728,65.2677108 C30.1983951,78.0789157 31.3403704,100.511004 31.3403704,100.511004 L38.9093827,100.805984 C38.9093827,100.805984 41.7506173,81.0831727 40.0879012,67.9633735 C47.775679,67.9633735 64.4759259,68.3672691 67.4130864,64.4190763 C70.8983951,59.7357028 69.2859259,53.5955823 69.2859259,53.5955823 L57.258642,53.5955823 Z" id="Path" fill="#263238"></path>
                        <polygon id="Path" fill="#0B7785" points="39.7453086 101.268876 30.6597531 100.819598 30.3354321 96.8940964 40.2980247 97.5748193"></polygon>
                        <path d="M50.6671605,27.5874297 C50.6032099,28.399759 50.5301235,29.1213253 50.4296296,29.8791968 C50.3291358,30.6370683 50.2332099,31.3767871 50.1144444,32.1255823 C49.8951852,33.6186345 49.5937037,35.1026104 49.255679,36.5956627 C48.9176543,38.0887149 48.5019753,39.5772289 47.9812346,41.0793574 C47.4525441,42.65958 46.7590219,44.1805636 45.9119753,45.61751 C45.4062641,46.4629026 44.7920625,47.2393841 44.0848148,47.9274297 C43.8975371,48.1013552 43.7008235,48.2649731 43.4955556,48.4175502 C43.3082716,48.5718474 43.1209877,48.7034538 42.9291358,48.8350602 C42.563887,49.0910007 42.1841241,49.3258597 41.7917284,49.5384739 C40.3431624,50.3214024 38.8110065,50.9409287 37.2238272,51.385502 C36.4701235,51.6169478 35.7118519,51.803012 34.9398765,51.9709237 C34.1679012,52.1388353 33.4324691,52.2840562 32.6559259,52.4020482 C31.1443014,52.6477611 29.618691,52.7993286 28.0880247,52.8558635 C27.3076241,52.8886561 26.6227781,52.3437679 26.4844712,51.5800185 C26.3461643,50.8162692 26.7969071,50.0684077 27.5398765,49.8289157 L27.5992593,49.8062249 C30.2779498,48.9643637 32.9057728,47.970385 35.4697531,46.8291968 C36.6487051,46.2991097 37.7770018,45.6642093 38.8408642,44.932249 C39.082963,44.7597992 39.2976543,44.5828112 39.5169136,44.4058233 C39.6174074,44.3195984 39.7224691,44.2333735 39.8092593,44.1426104 C39.8902194,44.0703156 39.9665029,43.9930132 40.0376543,43.9111647 C40.3409203,43.5469116 40.6014465,43.1495321 40.8141975,42.7267068 C41.3684702,41.6082803 41.813591,40.4396595 42.1434568,39.2368675 C42.5134568,37.9616466 42.8332099,36.6319679 43.0981481,35.2795984 C43.3630864,33.9272289 43.6006173,32.5567068 43.8244444,31.1680321 C44.0482716,29.7793574 44.217284,28.3634538 44.3725926,27.0473896 L44.3725926,26.970241 C44.610241,25.3167901 46.1172277,24.1431136 47.7901281,24.3085842 C49.4630286,24.4740547 50.7075055,25.919885 50.6123457,27.5874297 L50.6671605,27.5874297 Z" id="Path" fill="#0B7785"></path>
                        <path d="M28.2387654,49.0120482 L25.9548148,49.1527309 L27.7819753,53.3278313 C27.7819753,53.3278313 31.7332099,53.2416064 31.6509877,51.3083534 L30.9383951,50.4007229 C30.2787974,49.5768115 29.2967029,49.0716275 28.2387654,49.0120482 L28.2387654,49.0120482 Z" id="Path" fill="#FF8B7B"></path>
                        <polygon id="Path" fill="#FF8B7B" points="23.4516049 49.4976305 25.4249383 53.3369076 27.7774074 53.3369076 25.9502469 49.1618072"></polygon>
                        <path d="M50.3382716,21.1523293 L54.7554321,20.2446988 L58.272716,19.7409639 C58.7753396,19.6593559 59.2858539,19.6365096 59.7938272,19.6728916 C62.5578013,19.9219318 64.8765976,21.8477052 65.6133333,24.5060241 C66.4949383,27.6827309 67.2897531,31.581004 67.897284,35.0345382 C68.7469136,39.8313655 69.1854321,47.0379518 69.2676543,53.5910442 L48.3420988,53.5910442 C47.8853086,41.7237751 45.3455556,34.076988 44.4822222,29.3346185 C43.94774,26.3915931 45.4610934,23.4570779 48.1776543,22.1688755 L50.3382716,21.1523293 Z" id="Path" fill="#0B7785"></path>
                        <path d="M48.3420988,23.7617671 C48.3923457,25.7131727 48.7988889,32.6701606 50.9046914,36.6228916 C51.2746914,32.919759 55.7009877,21.646988 55.7009877,21.646988 L48.3420988,23.7617671 Z" id="Path" fill="#F5F5F5"></path>
                        <path d="M68.3769136,38.2929317 L68.3769136,38.2929317 C68.3769136,38.2203213 68.3769136,38.152249 68.3495062,38.0751004 L68.3083951,37.7483534 C68.2855556,37.5713655 68.262716,37.3943775 68.2398765,37.2264659 L68.171358,36.7408835 L68.1028395,36.2870683 C68.1028395,36.16 68.0617284,36.0283936 68.0434568,35.9058635 C67.9977778,35.6154217 67.9520988,35.3340562 67.9018519,35.0572289 C67.7511111,34.2085944 67.5912346,33.3281928 67.4176543,32.443253 L67.4176543,32.3706426 C67.2440741,31.463012 67.0659259,30.5871486 66.8740741,29.7022088 L66.8740741,29.6432129 C66.7964198,29.262008 66.7141975,28.8898795 66.6274074,28.5132129 L66.5314815,28.0957028 L66.367037,27.3741365 L66.23,26.8114056 L66.2025926,26.6934137 L66.2025926,26.6934137 C66.0198765,25.9491566 65.8325926,25.2185141 65.6407407,24.5287149 L62.4660494,22.867751 C62.8314815,24.2609639 63.178642,25.7948594 63.5075309,27.3650602 C63.1276095,27.5625989 62.7771082,27.8115447 62.4660494,28.1047791 C61.7077778,28.7764257 61.7351852,30.2059438 62.4934568,31.8986747 C64.5924708,36.7389994 65.7547196,41.9288994 65.9193827,47.1967871 C66.0153086,49.334257 66.0746914,51.4989558 66.1020988,53.6001205 L69.2996296,53.6001205 C69.2082716,48.3948594 68.9159259,42.7857028 68.3769136,38.2929317 Z" id="Path" fill="#000000" opacity="0.3"></path>
                        <path d="M53.1109877,12.4073092 L51.3158025,15.1302008 L48.8765432,18.8287952 C49.190503,19.1465367 49.4456398,19.5167642 49.6302469,19.92249 C50.087037,20.8301205 50.4433333,21.4836145 48.5567901,22.7588353 C48.1548148,23.0311245 48.1411111,23.462249 48.2324691,23.938755 C48.3420988,24.5196386 48.6892593,25.127751 50.7174074,24.7692369 C52.6775238,24.3946352 54.4664202,23.4090426 55.824321,21.9555823 C56.5003704,21.2793976 56.3450617,20.7756627 55.6918519,20.0767871 C53.8464198,18.1026908 53.2937037,14.9486747 53.1109877,12.4073092 Z" id="Path" fill="#FF8B7B"></path>
                        <path d="M48.7988889,24.8373092 L50.0916049,25.6451004 L52.1928395,24.7601606 C51.6975052,24.2634351 51.0589873,23.9319822 50.365679,23.8116867 C49.7617154,24.0107194 49.2212754,24.364492 48.7988889,24.8373092 L48.7988889,24.8373092 Z" id="Path" fill="#E88302"></path>
                        <path d="M50.3428395,23.8116867 C51.3066667,24.206506 51.7908642,25.0959839 52.2293827,26.1216064 C52.2293827,26.1216064 56.8475309,22.6453815 56.9434568,20.3536145 C56.6967901,19.5730522 55.5411111,19.7091968 55.5411111,19.7091968 C55.5411111,19.7091968 54.1341975,22.1325703 50.3428395,23.8116867 Z" id="Path" fill="#FFFFFF"></path>
                        <path d="M50.3428395,23.8116867 C49.4198546,24.1827149 48.8336501,25.0926943 48.8811111,26.0807631 C48.8811111,26.0807631 46.8255556,23.6846185 48.4974074,21.8738956 C48.9510307,21.6374505 49.4329733,21.4590427 49.9317284,21.3429317 C49.9317284,21.3429317 49.4292593,22.3413253 50.3428395,23.8116867 Z" id="Path" fill="#FFFFFF"></path>
                        <path d="M50.4981481,25.2684337 L49.9088889,25.2684337 C49.717037,25.5951807 49.4520988,29.8519679 49.347037,32.116506 C49.6293631,33.4385883 50.0440601,34.7293074 50.5849383,35.9693976 C50.5831191,35.9844708 50.5831191,35.9997059 50.5849383,36.0147791 C50.6169136,36.0873896 50.6488889,36.1554618 50.6854321,36.2235341 C50.7493827,36.3596787 50.8133333,36.4958233 50.8864198,36.6228916 C51.0974411,35.2170888 51.4259427,33.831188 51.8685185,32.4795582 C51.2655556,29.856506 50.4981481,25.2684337 50.4981481,25.2684337 Z" id="Path" fill="#E88302"></path>
                        <path d="M49.4795062,17.9166265 L50.9777778,15.2799598 C51.0051852,15.343494 51.0417284,15.4206426 51.0782716,15.493253 C51.2096553,15.8223552 51.3165273,16.1606014 51.3980247,16.505261 C51.6720988,17.6806426 50.7585185,19.3506827 49.7490123,20.1357831 C49.7079012,20.0631727 49.671358,19.9860241 49.6302469,19.9088755 C49.4505695,19.5278544 49.2184283,19.1735099 48.9404938,18.8560241 L48.8811111,18.8106426 L49.4795062,17.9166265 Z" id="Path" fill="#000000" opacity="0.2"></path>
                        <path d="M42.18,12.253012 C41.8191358,10.6419679 44.4,8.41373494 44.4,8.41373494 L41.3440741,7.35634538 C39.9645679,8.3411245 40.8598765,11.150241 42.18,12.253012 Z" id="Path" fill="#263238"></path>
                        <path d="M52.4760494,7.59686747 C53.1977778,11.626747 53.8464198,13.9502811 52.3207407,16.5234137 C51.3463274,18.2454362 49.4908542,19.2883498 47.5032581,19.2311964 C45.5156621,19.1740429 43.7240112,18.026256 42.8514815,16.2511245 C41.1385185,12.9291968 40.2477778,6.90253012 43.7330864,4.25678715 C45.2362412,3.05277131 47.2711396,2.73539891 49.073342,3.42389556 C50.8755443,4.11239222 52.1721422,5.7024985 52.4760494,7.59686747 Z" id="Path" fill="#FF8B7B"></path>
                        <path d="M52.5308642,11.6721285 L50.6123457,11.150241 L50.6123457,8.69963855 C50.6123457,8.69963855 48.1867901,7.33819277 48.561358,5.63638554 C48.7471693,4.67962763 49.008343,3.73884905 49.3424691,2.82273092 C49.3424691,2.82273092 53.188642,2.57767068 54.3671605,3.06779116 C54.0618961,3.39636631 53.7304058,3.69989758 53.3759259,3.97542169 C54.2982108,4.6093119 55.0891281,5.413567 55.7055556,6.34433735 C55.2239194,6.45094093 54.7736522,6.66684208 54.39,6.97514056 C54.39,6.97514056 54.8924691,10.3379116 52.5308642,11.6721285 Z" id="Path" fill="#263238"></path>
                        <path d="M48.1182716,0.20875502 C49.5297531,1.08915663 48.7120988,2.70473896 48.7120988,2.70473896 L52.4897531,2.78188755 C52.2887654,1.59742972 49.0135802,0.149759036 48.1182716,0.20875502 Z" id="Path" fill="#263238"></path>
                        <path d="M49.5937037,6.46232932 C49.3241975,7.21566265 46.2637037,8.14144578 43.472716,8.23220884 C42.0815872,8.20221845 40.7049463,7.94462936 39.3981481,7.4697992 C39.7921853,7.06772935 40.2565281,6.74019308 40.7685185,6.50317269 C39.082963,6.0902008 36.9497531,4.61983936 36.3604938,3.42176707 C37.5911881,2.98479646 38.9206493,2.89988769 40.1975309,3.17670683 C39.3533235,2.46875823 38.8314369,1.45304554 38.7495062,0.358514056 C38.7495062,0.358514056 45.8937037,3.17216867 48.6435802,2.00586345 C51.6309877,0.735180723 53.9012346,3.11771084 51.937037,4.93297189 C49.9728395,6.74823293 49.5937037,6.46232932 49.5937037,6.46232932 Z" id="Path" fill="#263238"></path>
                        <path d="M54.6595062,10.5148996 C54.6983838,11.4037049 54.4074206,12.2757546 53.8418519,12.965502 C53.1018519,13.8413655 51.9507407,13.14249 51.6858025,12.0578715 C51.4482716,11.0730924 51.7588889,9.55281124 52.7318519,9.08084337 C53.7048148,8.6088755 54.6092593,9.41212851 54.6595062,10.5148996 Z" id="Path" fill="#FF8B7B"></path>
                        <path d="M46.3002469,11.3453815 C46.4007407,11.6630522 46.3002469,11.9761847 46.1175309,12.0533333 C45.9348148,12.1304819 45.6607407,11.9308032 45.555679,11.5995181 C45.4506173,11.2682329 45.555679,10.9687149 45.7383951,10.8915663 C45.9211111,10.8144177 46.1951852,11.0095582 46.3002469,11.3453815 Z" id="Path" fill="#263238"></path>
                        <path d="M42.7601235,12.6160643 C42.8606173,12.9291968 42.7601235,13.2468675 42.5774074,13.3194779 C42.3946914,13.3920884 42.1206173,13.2014859 42.0155556,12.8656627 C41.9104938,12.5298394 42.0155556,12.2348594 42.1982716,12.162249 C42.3809877,12.0896386 42.6550617,12.2983936 42.7601235,12.6160643 Z" id="Path" fill="#263238"></path>
                        <path d="M43.9706173,12.4481526 C43.9855093,13.3873243 43.8749148,14.3243078 43.6417284,15.2345783 C44.1111015,15.3337658 44.6005166,15.2188695 44.9755556,14.9214458 L43.9706173,12.4481526 Z" id="Path" fill="#A02724"></path>
                        <path d="M46.1358025,16.1331325 C46.8767817,15.886326 47.4861652,15.3529064 47.8259259,14.6536948 C47.8449004,14.6035885 47.8207187,14.5475318 47.7711111,14.5266265 C47.7475286,14.5160482 47.7206447,14.5153834 47.6965616,14.524783 C47.6724785,14.5341826 47.6532389,14.5528493 47.6432099,14.5765462 C47.2674018,15.3372606 46.5565265,15.8807846 45.7201235,16.0469076 C45.6942928,16.0522536 45.6718191,16.0679339 45.6579907,16.0902588 C45.6441623,16.1125836 45.6402003,16.1395815 45.647037,16.1648996 C45.6584162,16.2162614 45.7095232,16.2487569 45.7612346,16.23751 C45.8882406,16.2108396 46.0133617,16.1759732 46.1358025,16.1331325 L46.1358025,16.1331325 Z" id="Path" fill="#263238"></path>
                        <path d="M47.0859259,9.48473896 C47.1141291,9.46808911 47.1376855,9.44468621 47.1544444,9.41666667 C47.1836268,9.37415151 47.1942656,9.32171981 47.183942,9.27129265 C47.1736184,9.22086549 47.1432097,9.17672807 47.0996296,9.14891566 C46.578322,8.80231217 45.9181878,8.73435 45.3364198,8.96738956 C45.2380313,9.01375709 45.1961063,9.13058559 45.2427778,9.22833333 C45.2894493,9.32608107 45.4070436,9.36773297 45.5054321,9.32136546 C45.9600085,9.146091 46.4722378,9.20376558 46.8758025,9.47566265 C46.9381754,9.51882673 47.0200175,9.52236191 47.0859259,9.48473896 L47.0859259,9.48473896 Z" id="Path" fill="#263238"></path>
                        <path d="M42.0566667,10.705502 C42.0654373,10.6743325 42.0654373,10.6413704 42.0566667,10.6102008 C42.014674,10.5115673 41.9005151,10.4649859 41.8008642,10.5058233 C41.2166233,10.7311947 40.7845785,11.2319643 40.6497531,11.8400402 C40.6472907,11.9372624 40.7172609,12.021446 40.8138195,12.0374343 C40.9103781,12.0534226 41.0040478,11.9963347 41.0334568,11.9035743 C41.148943,11.4297571 41.4899953,11.0417955 41.947037,10.8643373 C42.0091646,10.8342434 42.0507985,10.7739226 42.0566667,10.705502 L42.0566667,10.705502 Z" id="Path" fill="#263238"></path>
                        <path d="M64.6403704,22.5546185 C65.1428395,23.1718072 65.581358,23.73 66.0107407,24.324498 C66.4401235,24.918996 66.8877778,25.5089558 67.3080247,26.1125301 C68.1622222,27.3151406 68.957037,28.5631325 69.7335802,29.8338153 C70.5101235,31.104498 71.2318519,32.4296386 71.8804938,33.8319277 C72.5845544,35.2867293 73.1429996,36.8067521 73.5477778,38.3700803 C73.7750221,39.2789164 73.8945983,40.2110195 73.9040741,41.1474297 C73.8927222,42.0836975 73.7575733,43.0144234 73.5020988,43.9157028 C73.0472634,45.4848234 72.3836246,46.9866008 71.5287654,48.381245 C71.1359259,49.0483534 70.7111111,49.6882329 70.2680247,50.3054217 C69.8249383,50.9226104 69.3544444,51.5216466 68.8976543,52.097992 C67.9441557,53.2569452 66.9075868,54.3459135 65.7960494,55.3563855 C65.2214919,55.865066 64.3601413,55.883869 63.7636484,55.4007522 C63.1671555,54.9176354 63.0121484,54.0756551 63.3979012,53.4140562 L63.4390123,53.3459839 C64.8574752,51.0595747 66.0974845,48.6685311 67.1481481,46.1938554 C67.6195821,45.0785501 67.9628238,43.9139524 68.171358,42.7221687 C68.247791,42.2435519 68.2677201,41.7577065 68.2307407,41.274498 C68.1757356,40.7962634 68.0716553,40.3248696 67.9201235,39.8676707 C67.5250294,38.707298 67.0282706,37.5835827 66.4355556,36.5094378 C65.8280247,35.3703614 65.1428395,34.2403614 64.4119753,33.0922088 C63.6811111,31.9440562 62.9137037,30.8231325 62.1280247,29.7203614 L60.9266667,28.0593976 C60.5246914,27.5193574 60.1044444,26.943012 59.7253086,26.4483534 L59.6979012,26.4120482 C58.6257188,25.0611242 58.8588624,23.1024689 60.218642,22.0372691 C61.5784216,20.9720693 63.5499163,21.2036945 64.6220988,22.5546185 L64.6403704,22.5546185 Z" id="Path" fill="#0B7785"></path>
                        <path d="M21.1174074,56.0325703 L59.9811111,54.2853815 C60.2288291,54.2692547 60.4724866,54.3539746 60.6560201,54.5200479 C60.8395536,54.6861213 60.9471579,54.9192464 60.9540741,55.1657831 L20.2312346,56.9810442 C20.2201111,56.7379867 20.3076803,56.5006692 20.4742922,56.3223438 C20.6409042,56.1440185 20.8726066,56.0396184 21.1174074,56.0325703 L21.1174074,56.0325703 Z" id="Path" fill="#407BFF"></path>
                        <g id="Group" opacity="0.6" transform="translate(20.098765, 54.004016)" fill="#FFFFFF">
                            <path d="M1.01864198,2.02855422 L39.8823457,0.281365462 C40.1300636,0.265238616 40.3737211,0.349958523 40.5572546,0.516031862 C40.7407882,0.682105201 40.8483924,0.915230297 40.8553086,1.16176707 L0.132469136,2.97702811 C0.1213457,2.7339706 0.208914865,2.4966531 0.37552681,2.31832775 C0.542138755,2.1400024 0.773841203,2.03560238 1.01864198,2.02855422 L1.01864198,2.02855422 Z" id="Path"></path>
                        </g>
                        <path d="M14.9324691,38.1204819 L42.5819753,36.8770281 C42.9453462,36.881894 43.2667471,37.1123036 43.3859259,37.4533735 L48.6938272,54.1855422 C48.7518673,54.3258966 48.7354605,54.485783 48.6501055,54.6116139 C48.5647506,54.7374448 48.4217427,54.8125688 48.2690123,54.8118072 L20.6195062,56.055261 C20.2581193,56.051855 19.9379981,55.8228688 19.8201235,55.4834538 L14.5122222,38.746747 C14.4544895,38.6071359 14.4704003,38.4481447 14.5546722,38.3225601 C14.6389441,38.1969756 14.7805477,38.1212338 14.9324691,38.1204819 Z" id="Path" fill="#407BFF"></path>
                        <path d="M14.9324691,38.1204819 L42.5819753,36.8770281 C42.9453462,36.881894 43.2667471,37.1123036 43.3859259,37.4533735 L48.6938272,54.1855422 C48.7518673,54.3258966 48.7354605,54.485783 48.6501055,54.6116139 C48.5647506,54.7374448 48.4217427,54.8125688 48.2690123,54.8118072 L20.6195062,56.055261 C20.2581193,56.051855 19.9379981,55.8228688 19.8201235,55.4834538 L14.5122222,38.746747 C14.4544895,38.6071359 14.4704003,38.4481447 14.5546722,38.3225601 C14.6389441,38.1969756 14.7805477,38.1212338 14.9324691,38.1204819 Z" id="Path" fill="#FFFFFF" opacity="0.6"></path>
                        <path d="M43.3950617,37.4488353 L48.702963,54.181004 C48.7630103,54.3218383 48.7476125,54.4832487 48.6620037,54.6103685 C48.5763948,54.7374882 48.4320925,54.8132148 48.2781481,54.8118265 L42.5911111,36.87249 C42.954482,36.8773559 43.2758829,37.1077655 43.3950617,37.4488353 L43.3950617,37.4488353 Z" id="Path" fill="#407BFF" opacity="0.5"></path>
                        <path d="M49.762716,54.7437349 L59.9811111,54.2899197 C60.2288291,54.2737928 60.4724866,54.3585127 60.6560201,54.5245861 C60.8395536,54.6906594 60.9471579,54.9237845 60.9540741,55.1703213 L48.8765432,55.7103614 C48.8603106,55.4642568 48.9455859,55.2221861 49.1127479,55.0398478 C49.2799099,54.8575096 49.5145632,54.7506061 49.762716,54.7437349 Z" id="Path" fill="#407BFF" opacity="0.5"></path>
                        <path d="M62.6716049,53.2234538 L60.0587654,53.6001205 L62.7355556,57.2987149 C62.7355556,57.2987149 66.9882716,56.6225301 66.4949383,54.7482731 L65.581358,53.9949398 C64.7648932,53.3405547 63.7076946,53.0602512 62.6716049,53.2234538 Z" id="Path" fill="#FF8B7B"></path>
                        <polygon id="Path" fill="#FF8B7B" points="56.8612346 54.7074297 60.1364198 57.5437751 62.7355556 57.2987149 60.0587654 53.6001205"></polygon>
                    </g>
                </g>
            </g>
        </g>
    </g>
</svg>